<svg xmlns="http://www.w3.org/2000/svg" viewBox="0 0 134.14 58.16"><defs><style>.cls-1{opacity:0.2;}.cls-2{fill:#272525;}</style></defs><title>Asset 4</title><g id="Layer_2" data-name="Layer 2"><g id="Badge"><g id="_Group_" data-name="&lt;Group&gt;"><g id="_Group_2" data-name="&lt;Group&gt;" class="cls-1"><g id="_Group_3" data-name="&lt;Group&gt;"><path class="cls-2" d="M20.07,31.3a3.87,3.87,0,0,0-1.88-1.67,3.23,3.23,0,0,0,1.16-.85,5.18,5.18,0,0,0,1.17-3.54,7.58,7.58,0,0,0-.31-2.32,4.79,4.79,0,0,0-1.93-2.71,6.3,6.3,0,0,0-3.53-1H9.8V41.11h6.12a4.79,4.79,0,0,0,2.5-.77,4.72,4.72,0,0,0,1.73-1.82A7.28,7.28,0,0,0,20.94,35a9,9,0,0,0-.12-1.53A6.72,6.72,0,0,0,20.07,31.3Zm-6.7-8.77h1.38a2.1,2.1,0,0,1,1.59.65A2.88,2.88,0,0,1,17,25.24a4.22,4.22,0,0,1-.19,1.38,2,2,0,0,1-2.06,1.51H13.37Zm3.7,13.58a2.34,2.34,0,0,1-2.32,1.73H13.37V31.3h1.38a2.26,2.26,0,0,1,1.85.76,4.15,4.15,0,0,1,.7,2.68A3.68,3.68,0,0,1,17.07,36.11Z"/></g><g id="_Group_4" data-name="&lt;Group&gt;"><path class="cls-2" d="M33.27,36.11A1.88,1.88,0,0,1,31.38,38,1.87,1.87,0,0,1,30,37.44a1.8,1.8,0,0,1-.56-1.33V19.19H26.24v17a5.19,5.19,0,0,0,5.23,5.21,5.14,5.14,0,0,0,3.71-1.5,5,5,0,0,0,1.53-3.71V19.19H33.27Z"/></g><g id="_Group_5" data-name="&lt;Group&gt;"><path class="cls-2" d="M51.84,32.52A10.92,10.92,0,0,0,50,30.11a19.16,19.16,0,0,0-1.52-1.35A11.37,11.37,0,0,1,47,27.36a4.85,4.85,0,0,1-1.29-3.06,3.07,3.07,0,0,1,.38-1.61,1.52,1.52,0,0,1,1.38-.81,1.59,1.59,0,0,1,1.31.55,3.79,3.79,0,0,1,.78,2.1L52.68,24A6.22,6.22,0,0,0,52,21.41a4.5,4.5,0,0,0-1.58-1.71,5.55,5.55,0,0,0-3-.79,5,5,0,0,0-3.08.93,5.36,5.36,0,0,0-2,4.53A6.57,6.57,0,0,0,43,27.45a12.38,12.38,0,0,0,2.33,2.86c1.3,1.24,2.28,2.16,2.94,2.78a4.07,4.07,0,0,1,1.24,2.72,2.66,2.66,0,0,1-.33,1.45,2.08,2.08,0,0,1-1.74,1.07,1.71,1.71,0,0,1-1.36-.62,4.75,4.75,0,0,1-1-2.78l-3.14.23a8.77,8.77,0,0,0,.72,3.11,5.51,5.51,0,0,0,1.69,2.14,5.2,5.2,0,0,0,3.22,1,6.36,6.36,0,0,0,1.84-.24,4.39,4.39,0,0,0,2.27-1.56,6.23,6.23,0,0,0,1.19-3.92,6.07,6.07,0,0,0-.49-2.1A9.75,9.75,0,0,0,51.84,32.52Z"/></g><g id="_Group_6" data-name="&lt;Group&gt;"><rect class="cls-2" x="58.05" y="19.19" width="3.31" height="21.92"/></g><g id="_Group_7" data-name="&lt;Group&gt;"><polygon class="cls-2" points="74.87 33.91 70.48 19.17 66.77 19.17 66.77 41.11 70.08 41.11 70.08 27.06 74.63 41.11 78.18 41.11 78.18 19.17 74.87 19.17 74.87 33.91"/></g><g id="_Group_8" data-name="&lt;Group&gt;"><polygon class="cls-2" points="83.6 41.11 93.01 41.11 93.01 37.78 86.9 37.78 86.9 31.8 91.36 31.8 91.36 28.48 86.9 28.48 86.9 22.5 93.01 22.5 93.01 19.17 83.6 19.17 83.6 41.11"/></g><g id="_Group_9" data-name="&lt;Group&gt;"><path class="cls-2" d="M107.68,32.52a10.92,10.92,0,0,0-1.89-2.41,19.16,19.16,0,0,0-1.52-1.35,11.37,11.37,0,0,1-1.47-1.4,4.86,4.86,0,0,1-1.3-3.06,3.07,3.07,0,0,1,.39-1.61,1.51,1.51,0,0,1,1.38-.81,1.59,1.59,0,0,1,1.31.55,3.78,3.78,0,0,1,.77,2.1l3.17-.58a6.22,6.22,0,0,0-.73-2.54,4.58,4.58,0,0,0-1.58-1.71,5.56,5.56,0,0,0-3-.79,5,5,0,0,0-3.07.93,5.34,5.34,0,0,0-2,4.53,6.58,6.58,0,0,0,.74,3.08,12.3,12.3,0,0,0,2.32,2.86l2.94,2.78a4,4,0,0,1,1.25,2.72,2.65,2.65,0,0,1-.34,1.45,2.06,2.06,0,0,1-1.73,1.07,1.71,1.71,0,0,1-1.36-.62,4.75,4.75,0,0,1-1-2.78l-3.15.23a8.77,8.77,0,0,0,.73,3.11,5.42,5.42,0,0,0,1.69,2.14,5.2,5.2,0,0,0,3.22,1,6.25,6.25,0,0,0,1.83-.24,4.38,4.38,0,0,0,2.28-1.56,6.23,6.23,0,0,0,1.19-3.92,6.07,6.07,0,0,0-.49-2.1A9.75,9.75,0,0,0,107.68,32.52Z"/></g><g id="_Group_10" data-name="&lt;Group&gt;"><path class="cls-2" d="M123.35,32.52a10.92,10.92,0,0,0-1.89-2.41c-.25-.26-.75-.71-1.52-1.35a10.18,10.18,0,0,1-1.47-1.4,4.86,4.86,0,0,1-1.3-3.06,3.07,3.07,0,0,1,.39-1.61,1.51,1.51,0,0,1,1.38-.81,1.59,1.59,0,0,1,1.31.55,3.78,3.78,0,0,1,.77,2.1l3.17-.58a6.22,6.22,0,0,0-.73-2.54,4.58,4.58,0,0,0-1.58-1.71,5.56,5.56,0,0,0-3-.79,5,5,0,0,0-3.08.93,5.36,5.36,0,0,0-2,4.53,6.58,6.58,0,0,0,.74,3.08,12.3,12.3,0,0,0,2.32,2.86l2.94,2.78A4,4,0,0,1,121,35.81a2.66,2.66,0,0,1-.33,1.45,2.06,2.06,0,0,1-1.73,1.07,1.71,1.71,0,0,1-1.36-.62,4.75,4.75,0,0,1-1-2.78l-3.15.23a8.56,8.56,0,0,0,.73,3.11,5.42,5.42,0,0,0,1.69,2.14,5.2,5.2,0,0,0,3.22,1,6.29,6.29,0,0,0,1.83-.24,4.38,4.38,0,0,0,2.28-1.56,6.23,6.23,0,0,0,1.19-3.92,6.31,6.31,0,0,0-.49-2.1A9.75,9.75,0,0,0,123.35,32.52Z"/></g></g><g id="_Group_11" data-name="&lt;Group&gt;"><g id="_Group_12" data-name="&lt;Group&gt;"><path class="cls-2" d="M20.07,29.57a3.85,3.85,0,0,0-1.88-1.66,3.38,3.38,0,0,0,1.16-.86,5.13,5.13,0,0,0,1.17-3.53,7.65,7.65,0,0,0-.31-2.33,4.83,4.83,0,0,0-1.93-2.71,6.29,6.29,0,0,0-3.53-1H9.8V39.38h6.12a4.7,4.7,0,0,0,2.5-.77,4.66,4.66,0,0,0,1.73-1.82,7.22,7.22,0,0,0,.79-3.53,8.76,8.76,0,0,0-.12-1.52A6.78,6.78,0,0,0,20.07,29.57Zm-6.7-8.76h1.38a2.09,2.09,0,0,1,1.59.64A2.92,2.92,0,0,1,17,23.52a4.22,4.22,0,0,1-.19,1.38,2,2,0,0,1-2.06,1.5H13.37Zm3.7,13.57a2.33,2.33,0,0,1-2.32,1.73H13.37V29.57h1.38a2.27,2.27,0,0,1,1.85.77A4.14,4.14,0,0,1,17.3,33,3.63,3.63,0,0,1,17.07,34.38Z"/></g><g id="_Group_13" data-name="&lt;Group&gt;"><path class="cls-2" d="M33.27,34.38a1.85,1.85,0,0,1-.55,1.34,1.83,1.83,0,0,1-1.34.55A1.87,1.87,0,0,1,30,35.72a1.82,1.82,0,0,1-.56-1.34V17.46H26.24v17a5.19,5.19,0,0,0,5.23,5.21,5.11,5.11,0,0,0,3.71-1.51,5,5,0,0,0,1.53-3.7v-17H33.27Z"/></g><g id="_Group_14" data-name="&lt;Group&gt;"><path class="cls-2" d="M51.84,30.79A11.16,11.16,0,0,0,50,28.38,19.16,19.16,0,0,0,48.43,27,10.73,10.73,0,0,1,47,25.63a4.8,4.8,0,0,1-1.29-3.06A3.1,3.1,0,0,1,46.05,21a1.53,1.53,0,0,1,1.38-.8,1.61,1.61,0,0,1,1.31.54,3.79,3.79,0,0,1,.78,2.1l3.16-.58A6.18,6.18,0,0,0,52,19.69,4.46,4.46,0,0,0,50.37,18a5.63,5.63,0,0,0-3-.78,5,5,0,0,0-3.08.92,5.37,5.37,0,0,0-2,4.54A6.6,6.6,0,0,0,43,25.73a12.57,12.57,0,0,0,2.33,2.85l2.94,2.79a4.06,4.06,0,0,1,1.24,2.71,2.64,2.64,0,0,1-.33,1.45,2.06,2.06,0,0,1-1.74,1.07A1.67,1.67,0,0,1,46.07,36a4.78,4.78,0,0,1-1-2.78l-3.14.23a8.72,8.72,0,0,0,.72,3.1,5.43,5.43,0,0,0,1.69,2.14,5.14,5.14,0,0,0,3.22,1,6.35,6.35,0,0,0,1.84-.25,4.28,4.28,0,0,0,2.27-1.56,6.2,6.2,0,0,0,1.19-3.91,6.07,6.07,0,0,0-.49-2.1A9.82,9.82,0,0,0,51.84,30.79Z"/></g><g id="_Group_15" data-name="&lt;Group&gt;"><rect class="cls-2" x="58.05" y="17.46" width="3.31" height="21.92"/></g><g id="_Group_16" data-name="&lt;Group&gt;"><polygon class="cls-2" points="74.87 32.19 70.48 17.45 66.77 17.45 66.77 39.38 70.08 39.38 70.08 25.34 74.63 39.38 78.18 39.38 78.18 17.45 74.87 17.45 74.87 32.19"/></g><g id="_Group_17" data-name="&lt;Group&gt;"><polygon class="cls-2" points="83.6 39.38 93.01 39.38 93.01 36.06 86.9 36.06 86.9 30.08 91.36 30.08 91.36 26.75 86.9 26.75 86.9 20.77 93.01 20.77 93.01 17.45 83.6 17.45 83.6 39.38"/></g><g id="_Group_18" data-name="&lt;Group&gt;"><path class="cls-2" d="M107.68,30.79a11.16,11.16,0,0,0-1.89-2.41A19.16,19.16,0,0,0,104.27,27a10.73,10.73,0,0,1-1.47-1.4,4.82,4.82,0,0,1-1.3-3.06,3.1,3.1,0,0,1,.39-1.61,1.52,1.52,0,0,1,1.38-.8,1.61,1.61,0,0,1,1.31.54,3.78,3.78,0,0,1,.77,2.1l3.17-.58a6.18,6.18,0,0,0-.73-2.53A4.54,4.54,0,0,0,106.21,18a5.64,5.64,0,0,0-3-.78,5,5,0,0,0-3.07.92,5.35,5.35,0,0,0-2,4.54,6.61,6.61,0,0,0,.74,3.08,12.49,12.49,0,0,0,2.32,2.85l2.94,2.79a4,4,0,0,1,1.25,2.71,2.63,2.63,0,0,1-.34,1.45,2,2,0,0,1-1.73,1.07,1.67,1.67,0,0,1-1.36-.61,4.78,4.78,0,0,1-1-2.78l-3.15.23a8.72,8.72,0,0,0,.73,3.1,5.35,5.35,0,0,0,1.69,2.14,5.14,5.14,0,0,0,3.22,1,6.23,6.23,0,0,0,1.83-.25,4.27,4.27,0,0,0,2.28-1.56,6.2,6.2,0,0,0,1.19-3.91,6.07,6.07,0,0,0-.49-2.1A9.82,9.82,0,0,0,107.68,30.79Z"/></g><g id="_Group_19" data-name="&lt;Group&gt;"><path class="cls-2" d="M123.35,30.79a11.16,11.16,0,0,0-1.89-2.41c-.25-.26-.75-.71-1.52-1.35a9.66,9.66,0,0,1-1.47-1.4,4.82,4.82,0,0,1-1.3-3.06,3.1,3.1,0,0,1,.39-1.61,1.52,1.52,0,0,1,1.38-.8,1.61,1.61,0,0,1,1.31.54,3.78,3.78,0,0,1,.77,2.1l3.17-.58a6.18,6.18,0,0,0-.73-2.53A4.54,4.54,0,0,0,121.88,18a5.64,5.64,0,0,0-3-.78,5,5,0,0,0-3.08.92,5.37,5.37,0,0,0-2,4.54,6.61,6.61,0,0,0,.74,3.08,12.49,12.49,0,0,0,2.32,2.85l2.94,2.79A4,4,0,0,1,121,34.08a2.64,2.64,0,0,1-.33,1.45,2,2,0,0,1-1.73,1.07,1.67,1.67,0,0,1-1.36-.61,4.78,4.78,0,0,1-1-2.78l-3.15.23a8.51,8.51,0,0,0,.73,3.1,5.35,5.35,0,0,0,1.69,2.14,5.14,5.14,0,0,0,3.22,1,6.28,6.28,0,0,0,1.83-.25,4.27,4.27,0,0,0,2.28-1.56,6.2,6.2,0,0,0,1.19-3.91,6.31,6.31,0,0,0-.49-2.1A9.82,9.82,0,0,0,123.35,30.79Z"/></g></g><g id="_Group_20" data-name="&lt;Group&gt;"><g id="_Group_21" data-name="&lt;Group&gt;"><path class="cls-2" d="M8.79.21a8.46,8.46,0,0,1-.3,2.21l-.07.27h3.17l0-.17A11.17,11.17,0,0,0,11.85.21V0H8.79Zm.42.22h2.21a11.23,11.23,0,0,1-.18,1.83H9A8.28,8.28,0,0,0,9.21.43Z"/></g><g id="_Group_22" data-name="&lt;Group&gt;"><path class="cls-2" d="M8.49,2.42a8.59,8.59,0,0,1-5.92,6l-.16.05v3.15l.26-.06a11.6,11.6,0,0,0,9-9.07l.05-.26H8.53Zm2.66.27a11.19,11.19,0,0,1-8.31,8.42V8.82a9,9,0,0,0,6-6.13Z"/></g><g id="_Group_23" data-name="&lt;Group&gt;"><path class="cls-2" d="M.21,8.79H0v3.06H.21a12,12,0,0,0,2.46-.26l.17,0V8.38l-.27.07A8.32,8.32,0,0,1,.21,8.79Zm2.2,2.42a11,11,0,0,1-2,.21V9.21a8.43,8.43,0,0,0,2-.27Z"/></g><g id="_Group_24" data-name="&lt;Group&gt;"><path class="cls-2" d="M.21,11.42H0V46.74H.21A11.09,11.09,0,0,1,2.58,47l.26.06V11.12l-.26.05A11.16,11.16,0,0,1,.21,11.42Zm2.2,35.1a11,11,0,0,0-2-.21V11.85a11,11,0,0,0,2-.21Z"/></g><g id="_Group_25" data-name="&lt;Group&gt;"><path class="cls-2" d="M125.65,2.42l0-.16h-3.14l0,.26a11.61,11.61,0,0,0,9,9.07l.26.06V8.5l-.15-.05A8.62,8.62,0,0,1,125.65,2.42Zm5.65,8.69A11.16,11.16,0,0,1,123,2.69h2.28a9.05,9.05,0,0,0,6,6.13Z"/></g><g id="_Group_26" data-name="&lt;Group&gt;"><path class="cls-2" d="M122.94,2.44l0-.18H11.24l0,.18a11.18,11.18,0,0,1-8.62,8.73l-.17,0V47l.17,0a11.17,11.17,0,0,1,8.62,8.73l0,.18H122.91l0-.18A11.18,11.18,0,0,1,131.56,47l.17,0V11.21l-.17,0A11.2,11.2,0,0,1,122.94,2.44Zm8.36,44.17a11.61,11.61,0,0,0-8.74,8.86h-111a11.62,11.62,0,0,0-8.75-8.86V11.55a11.62,11.62,0,0,0,8.75-8.86h111a11.61,11.61,0,0,0,8.74,8.86Z"/></g><g id="_Group_27" data-name="&lt;Group&gt;"><path class="cls-2" d="M125.36.21V0h-3.07V.21a11.91,11.91,0,0,0,.23,2.31l0,.17h3.16l-.07-.27A8.44,8.44,0,0,1,125.36.21Zm-2.45,2.05a11.25,11.25,0,0,1-.19-1.83h2.21a9.67,9.67,0,0,0,.24,1.83Z"/></g><g id="_Group_28" data-name="&lt;Group&gt;"><path class="cls-2" d="M122.72.21V0H11.42V.21a11.1,11.1,0,0,1-.22,2.23l0,.25H123l0-.25A11.1,11.1,0,0,1,122.72.21Zm-111,2.05A11.23,11.23,0,0,0,11.85.43H122.29a12.46,12.46,0,0,0,.18,1.83Z"/></g><g id="_Group_29" data-name="&lt;Group&gt;"><path class="cls-2" d="M.21,46.31H0v3.06H.21a8.32,8.32,0,0,1,2.36.34l.27.07V46.61l-.17,0A12,12,0,0,0,.21,46.31Zm2.2,2.91a8.43,8.43,0,0,0-2-.27V46.74a11,11,0,0,1,2,.21Z"/></g><g id="_Group_30" data-name="&lt;Group&gt;"><path class="cls-2" d="M131.47,46.57l-.17,0v3.17l.28-.07a8.3,8.3,0,0,1,2.35-.34h.21V46.31h-.21A12,12,0,0,0,131.47,46.57ZM133.72,49a8.44,8.44,0,0,0-2,.27V47a11.11,11.11,0,0,1,2-.21Z"/></g><g id="_Group_31" data-name="&lt;Group&gt;"><path class="cls-2" d="M131.58,8.45l-.28-.07v3.17l.17,0a12,12,0,0,0,2.46.26h.21V8.79h-.21A8.3,8.3,0,0,1,131.58,8.45Zm2.14,3a11.11,11.11,0,0,1-2-.21V8.94a8.51,8.51,0,0,0,2,.27Z"/></g><g id="_Group_32" data-name="&lt;Group&gt;"><path class="cls-2" d="M131.56,11.17l-.26-.05V47.05l.26-.06a11.16,11.16,0,0,1,2.37-.25h.21V11.42h-.21A11.16,11.16,0,0,1,131.56,11.17Zm2.16,35.14a11.11,11.11,0,0,0-2,.21V11.64a11.11,11.11,0,0,0,2,.21Z"/></g><g id="_Group_33" data-name="&lt;Group&gt;"><path class="cls-2" d="M122.52,55.64a11.91,11.91,0,0,0-.23,2.31v.21h3.07V58a8.44,8.44,0,0,1,.29-2.21l.07-.27h-3.16Zm.39.26h2.26a9.67,9.67,0,0,0-.24,1.83h-2.21A11.25,11.25,0,0,1,122.91,55.9Z"/></g><g id="_Group_34" data-name="&lt;Group&gt;"><path class="cls-2" d="M11.59,55.47H8.42l.07.27A8.46,8.46,0,0,1,8.79,58v.21h3.06V58a11.17,11.17,0,0,0-.23-2.31ZM9.21,57.73A8.28,8.28,0,0,0,9,55.9h2.27a11.23,11.23,0,0,1,.18,1.83Z"/></g><g id="_Group_35" data-name="&lt;Group&gt;"><path class="cls-2" d="M11.2,55.72A11.1,11.1,0,0,1,11.42,58v.21h111.3V58a11.1,11.1,0,0,1,.22-2.23l0-.25H11.15Zm111.27.18a12.46,12.46,0,0,0-.18,1.83H11.85a11.23,11.23,0,0,0-.18-1.83Z"/></g><g id="_Group_36" data-name="&lt;Group&gt;"><path class="cls-2" d="M122.52,55.64l0,.26h3.14l0-.16a8.62,8.62,0,0,1,5.93-6l.15-.05V46.51l-.26.06A11.61,11.61,0,0,0,122.52,55.64Zm8.78-6.3a9.05,9.05,0,0,0-6,6.13H123a11.16,11.16,0,0,1,8.3-8.42Z"/></g><g id="_Group_37" data-name="&lt;Group&gt;"><path class="cls-2" d="M2.67,46.57l-.26-.06v3.15l.16.05a8.59,8.59,0,0,1,5.92,6l0,.16h3.14l-.05-.26A11.6,11.6,0,0,0,2.67,46.57Zm6.19,8.9a9,9,0,0,0-6-6.13V47.05a11.19,11.19,0,0,1,8.31,8.42Z"/></g></g><g id="_Group_38" data-name="&lt;Group&gt;"><path class="cls-2" d="M63.47,10.38l3.6,3.6,3.6-3.6-3.6-3.6Zm3.6,3-3-3,3-3,3,3Z"/></g><g id="_Group_39" data-name="&lt;Group&gt;"><path class="cls-2" d="M57.07,10.16H17.73a.22.22,0,0,0-.21.22.21.21,0,0,0,.21.21H57.07a.21.21,0,0,0,.22-.21A.22.22,0,0,0,57.07,10.16Z"/></g><g id="_Group_40" data-name="&lt;Group&gt;"><path class="cls-2" d="M116.41,10.16H77.07a.21.21,0,0,0-.21.22.21.21,0,0,0,.21.21h39.34a.21.21,0,0,0,.22-.21A.22.22,0,0,0,116.41,10.16Z"/></g><g id="_Group_41" data-name="&lt;Group&gt;"><path class="cls-2" d="M63.47,48l3.6,3.6,3.6-3.6-3.6-3.6Zm3.6,3-3-3,3-3,3,3Z"/></g><g id="_Group_42" data-name="&lt;Group&gt;"><path class="cls-2" d="M57.07,47.8H17.73a.21.21,0,0,0-.21.21.22.22,0,0,0,.21.22H57.07a.22.22,0,0,0,.22-.22A.21.21,0,0,0,57.07,47.8Z"/></g><g id="_Group_43" data-name="&lt;Group&gt;"><path class="cls-2" d="M116.41,47.8H77.07a.21.21,0,0,0-.21.21.21.21,0,0,0,.21.22h39.34a.22.22,0,0,0,.22-.22A.21.21,0,0,0,116.41,47.8Z"/></g></g></g></g></svg>