<svg xmlns="http://www.w3.org/2000/svg" viewBox="0 0 133.43 77.13"><defs><style>.cls-1{fill:#272525;}</style></defs><title>Asset 1</title><g id="Layer_2" data-name="Layer 2"><g id="Badge"><path class="cls-1" d="M121.51,61.67,133.3,47.16a.58.58,0,0,0-.46-.95h-3.05L131,44.77a.58.58,0,0,0,.07-.62.59.59,0,0,0-.53-.33H118v-7a.59.59,0,0,0-.59-.59H115.6v-1.8a.59.59,0,0,0-.58-.59h-8.08l-6.28-10.58-5.22-1.82-4.53,5.07-9.1-11.83L78.2,18.46,68,0,50.48,22.36,43,13.4l-2.65,1.42-2.38-3-13.75,22H16.07a.59.59,0,0,0-.59.59v9.38H.59a.58.58,0,0,0-.46,1L11.92,59.28.13,73.79a.58.58,0,0,0,.46.95H3.64L2.48,76.17a.57.57,0,0,0-.08.62.58.58,0,0,0,.53.34H23.38a.59.59,0,0,0,.46-.23.61.61,0,0,0,.11-.51,45.37,45.37,0,0,1-1.18-6.5h87.57c-.22,1.39-.51,2.77-.86,4.12a.6.6,0,0,0,.11.5.56.56,0,0,0,.46.23h2.17c-.12.55-.25,1.11-.39,1.65a.58.58,0,0,0,.1.51.59.59,0,0,0,.46.23h20.45a.57.57,0,0,0,.53-.34.58.58,0,0,0-.07-.62ZM96,23.06l-.15,2.57,4.05-1.27-5.51,3.42,2.19,1.55-2.77-.24,2.77,1.37-3.75-.3,1.27,2.34H88.56ZM81.68,16.9l-.78,2.4,2.15.38-3.12,1.8,1.75,3.13-.57,5.21-1.33-4-2.19-2.48s1.12,4.87,1.12,5-1.8-4.05-1.8-4.05l-.79,6.19v-4L69.4,31.09ZM58,16.19l2.21,1.17-1-2.7,4.29,4.64L60.22,13,67.89,2.73v4L65.54,9l2.35,5.13-4-3,1,3.48L62.35,13.4l3.19,8.12-4-2.22L64,21.84,66.13,28l-2.6-4.22-5.46-3L61,25,56.06,22l2,3.05-2.8-1.69-8.12,6.76ZM43.1,15l3,4.09-3.25-3,.35,3.25-2.1-3.19Zm-5-.33,6,8.4-6-5,3.21,5L41.75,27l-1.46-3.91-3.22-2.84v6.14l-1.26-4.48L34,27l-6.63,4.49ZM1.81,73.57,13.13,59.65a.6.6,0,0,0,0-.74L1.81,45H15.48V46.2H11.77v.2h3.71v1.1H8.77v.19h6.71V48.8H13.12V49h2.36V50.1h-5v.19h5v1.1H13.12v.2h2.36v1.1h-1.7v.2h1.7V54H11.77v.19h3.71v1.11h-1.7v.19h1.7v1.11H13.12v.19h2.36v1.1H13.12v.2h2.36v1.1H14.2v.2h1.28v1.1h-1.7v.2h1.7v1.1H13.39V62h2.09v1.11h-3.2v.19h3.2v1.11h-1.7v.19h1.7v1.1H13.12v.2h2.36v1s0,0,0,0H12.77v.2h2.77a.58.58,0,0,0,.53.33h3.17c0,.26.07.51.1.77H16.78v.19h2.59l.15,1.11H10v.19h9.55c.06.37.11.74.18,1.11H16.78v.19h3c.07.37.15.74.23,1.1H11.14v.2H20c.08.4.15.81.25,1.21Zm18-7.24H16.65V35h97.78V66.33H19.77Zm91,7.24c.1-.4.16-.81.25-1.21H120v-.2h-8.86c.08-.36.16-.73.23-1.1h3v-.19h-3c.07-.37.12-.74.17-1.11h9.56v-.19h-9.53c.06-.37.11-.74.16-1.11h2.59v-.19h-2.57c0-.26.08-.51.11-.77H115a.56.56,0,0,0,.52-.33h2.77V67h-2.72s0,0,0,0v-1H118v-.2H115.6v-1.1h1.71v-.19H115.6V63.27h3.21v-.19H115.6V62h2.09v-.19H115.6v-1.1h1.71v-.2H115.6v-1.1h1.29v-.2H115.6v-1.1H118v-.2H115.6v-1.1H118v-.19H115.6V55.48h1.71v-.19H115.6V54.18h3.72V54H115.6v-1.1h1.71v-.2H115.6v-1.1H118v-.2H115.6v-1.1h5V50.1h-5V49H118V48.8H115.6V47.69h6.72V47.5H115.6V46.4h3.72v-.2H115.6V45h13.67L118,58.91a.6.6,0,0,0,0,.74l11.31,13.92Z"/><rect class="cls-1" x="121.09" y="46.2" width="4.02" height="0.19"/><rect class="cls-1" x="119.3" y="51.39" width="2.66" height="0.19"/><rect class="cls-1" x="118.31" y="64.38" width="2.01" height="0.2"/><rect class="cls-1" x="119.26" y="65.67" width="1.37" height="0.19"/><rect class="cls-1" x="116.21" y="68.27" width="3.18" height="0.2"/><rect class="cls-1" x="123.1" y="69.57" width="2.01" height="0.19"/><rect class="cls-1" x="116.32" y="70.87" width="7.24" height="0.19"/><rect class="cls-1" x="5.98" y="46.2" width="4.02" height="0.19"/><rect class="cls-1" x="9.13" y="51.39" width="2.67" height="0.19"/><rect class="cls-1" x="10.77" y="64.38" width="2.01" height="0.2"/><rect class="cls-1" x="10.46" y="65.67" width="1.37" height="0.19"/><rect class="cls-1" x="11.7" y="68.27" width="3.18" height="0.2"/><rect class="cls-1" x="5.98" y="69.57" width="2.01" height="0.19"/><rect class="cls-1" x="7.52" y="70.87" width="7.24" height="0.19"/><path class="cls-1" d="M31.83,38.55H21.76V62h.6v1.13H32.82V59.21h-1v-.75H26.28V53.2h4.78v-4h-1v-.74H26.28V43.24h6.54v-4h-1Zm0,23.47V59.6h.6v3.16H22.75V62Zm-1.76-10V49.64h.6v3.17H25.9v5.65h-.6v-6.4Zm2.36-12.38v3.17H25.9v5.66h-.6v-6.4h6.53V39.68Z"/><path class="cls-1" d="M45.7,39.31l.29-.74H42.08l-2.27,6.32-2-5.58h-.67l-.26-.74H32.94l4.61,11.66L32.94,62h1l-.45,1.13h4.22l2.48-6.75,2,5.62h.25l.41,1.13h4.22l-4.68-12,4.68-11.86Zm-8.43.39h.24l2.09,5.77-.12.34Zm.13,23.06H34l.29-.74h2.43l2.74-7.47.46,1.28Zm9.1,0H43.12L42.85,62H46l-4.6-11.79L45.54,39.7h1L42,51.17Z"/><path class="cls-1" d="M57.34,40.24l0,0a5.36,5.36,0,0,0-4.11-1.63H47.61V62h.6v1.13h3.93V54.32H54A5.48,5.48,0,0,0,58,52.61a5.67,5.67,0,0,0,1.68-4.1V45.1A5.86,5.86,0,0,0,58.24,41,5.41,5.41,0,0,0,57.34,40.24Zm-2,4v3.42a2,2,0,0,1-.59,1.45,1.93,1.93,0,0,1-1.43.6H52.14V43.31h1.93a1.84,1.84,0,0,1,1.17.37A2.35,2.35,0,0,1,55.3,44.22Zm-4.15-2h2.13a2,2,0,0,1,1.47.56,1.88,1.88,0,0,1,.27.36,2.59,2.59,0,0,0-1-.18H51.74v6.77h-.59Zm8.17,6.33a5.28,5.28,0,0,1-1.56,3.83A5.14,5.14,0,0,1,54,53.93H51.74v8.83H48.6V62h2.55V53.19h2a5.3,5.3,0,0,0,3.92-1.65,5.46,5.46,0,0,0,1.62-4V44.16a6.22,6.22,0,0,0-.54-2.58,5.56,5.56,0,0,1,1.13,3.52Z"/><path class="cls-1" d="M69.87,58.5H64.76V39.31h-1v-.74H60.23V62h.6v1.13h10V59.24h-1Zm-6.1-18.8h.6V58.5h-.6Zm6.7,19.93v3.13H61.22V62h8.65V59.63Z"/><path class="cls-1" d="M80.64,40a.6.6,0,0,0-.08-.08,5.6,5.6,0,0,0-9.57,4V56.69A5.43,5.43,0,0,0,72.08,60a5.88,5.88,0,0,0,1.19,1.73,5.81,5.81,0,0,0,9.92-4.11V44.82a5.61,5.61,0,0,0-1.7-4.1A5.79,5.79,0,0,0,80.64,40Zm-2.13,3.81V56.65a1.92,1.92,0,0,1-.59,1.43,2,2,0,0,1-1.43.59,2.06,2.06,0,0,1-.79-.15,1.74,1.74,0,0,1-.26-.93V44.75A1.71,1.71,0,0,1,76,43.46a1.79,1.79,0,0,1,1.31-.54,1.72,1.72,0,0,1,1.17.44A2.14,2.14,0,0,1,78.51,43.81Zm-4.06,0a1.93,1.93,0,0,1,.6-1.43,2,2,0,0,1,1.44-.59,1.92,1.92,0,0,1,1.43.59,2.26,2.26,0,0,1,.28.35,2.13,2.13,0,0,0-.91-.2,2.16,2.16,0,0,0-1.58.65,2.11,2.11,0,0,0-.66,1.57V57.59a2,2,0,0,0,.08.55l-.08-.06a1.93,1.93,0,0,1-.6-1.43Zm8.35,1v12.8A5.41,5.41,0,0,1,77.38,63a5.18,5.18,0,0,1-3.83-1.59l-.06-.07a5.62,5.62,0,0,0,8.71-4.69V43.88a5.67,5.67,0,0,0-.46-2.26A5.26,5.26,0,0,1,82.8,44.82Z"/><path class="cls-1" d="M96.13,48.51V45.1A6.12,6.12,0,0,0,94.87,41a4.16,4.16,0,0,0-1-.82,5.39,5.39,0,0,0-4.34-1.62H84V62h.6v1.13h3.92V54.32h1.65L92.05,62h.36l.28,1.13h4.23L94.26,52.79A5.69,5.69,0,0,0,96.13,48.51Zm-8.58-6.33h2.13a1.81,1.81,0,0,1,1.78.9,2.93,2.93,0,0,0-1-.16H88.14v6.77h-.59Zm.59,11.75v8.83H85V62h2.55V53.19H89.9l.18.74Zm3.56-6.29a2,2,0,0,1-.59,1.45,1.93,1.93,0,0,1-1.43.6H88.53V43.31h1.94a2.2,2.2,0,0,1,1.17.28,4.08,4.08,0,0,1,.06.63Zm4.71,15.12H93L92.81,62h3.06L93.25,51.78a5.48,5.48,0,0,0,1.89-4.21V44.16a6.78,6.78,0,0,0-.56-2.88,5.73,5.73,0,0,1,1.16,3.82v3.41a5.31,5.31,0,0,1-1.83,4.07l-.08.08Z"/><path class="cls-1" d="M107.66,38.55H97.59V62h.6v1.13h10.46V59.21h-1v-.75h-5.55V53.2h4.78v-4h-1v-.74h-3.79V43.24h6.54v-4h-1Zm0,23.47V59.6h.59v3.16H98.57V62Zm-1.76-10V49.64h.6v3.17h-4.78v5.65h-.6v-6.4Zm2.35-12.38v3.17h-6.53v5.66h-.6v-6.4h6.54V39.68Z"/></g></g></svg>