<svg xmlns="http://www.w3.org/2000/svg" viewBox="0 0 212.4 88.43"><defs><style>.cls-1{opacity:0.2;}.cls-2{fill:#272525;}</style></defs><title>Asset 2</title><g id="Layer_2" data-name="Layer 2"><g id="Badge"><g id="_Group_" data-name="&lt;Group&gt;" class="cls-1"><g id="_Group_2" data-name="&lt;Group&gt;"><path class="cls-2" d="M32.4,33.29,33,64.13l4.69-.89-.21-7.08,4.71-.89,2.35,6.67,4.74-.9L38.6,32.12Zm4.93,18.36-.56-12.1L40.67,51Z"/></g><g id="_Group_3" data-name="&lt;Group&gt;"><path class="cls-2" d="M62.19,35.84a7,7,0,0,0-2.78-4.78,6.91,6.91,0,0,0-5.35-1.42l-7.14,1,4.16,30.14,7.14-1A6.92,6.92,0,0,0,63,57a7.08,7.08,0,0,0,1.39-5.39ZM59.47,54.23a2.47,2.47,0,0,1-1.72,1L55,55.65l-2.91-21,2.74-.38a2.47,2.47,0,0,1,1.92.52,2.5,2.5,0,0,1,1,1.75L60,52.29A2.63,2.63,0,0,1,59.47,54.23Z"/></g><g id="_Group_4" data-name="&lt;Group&gt;"><polygon class="cls-2" points="74.47 51.19 68.56 27.92 63.77 28.35 71.89 58.15 78.17 57.59 80.98 26.82 76.19 27.24 74.47 51.19"/></g><g id="_Group_5" data-name="&lt;Group&gt;"><polygon class="cls-2" points="89.9 52.24 89.56 43.95 95.74 43.7 95.56 39.09 89.37 39.34 89.04 31.05 97.5 30.71 97.31 26.1 84.27 26.63 85.5 57.04 98.55 56.51 98.36 51.9 89.9 52.24"/></g><g id="_Group_6" data-name="&lt;Group&gt;"><polygon class="cls-2" points="111.09 46.56 105.34 26.01 100.19 25.93 99.7 56.35 104.29 56.43 104.6 36.94 110.59 56.53 115.52 56.61 116.01 26.18 111.43 26.11 111.09 46.56"/></g><g id="_Group_7" data-name="&lt;Group&gt;"><polygon class="cls-2" points="118.51 30.81 123.38 31.05 122.08 56.82 126.66 57.05 127.96 31.29 132.81 31.53 133.04 26.93 118.74 26.2 118.51 30.81"/></g><g id="_Group_8" data-name="&lt;Group&gt;"><path class="cls-2" d="M143.54,51.44a2.63,2.63,0,0,1-5.24-.5l2.26-23.36-4.47-.43-2.26,23.4a7,7,0,0,0,1.6,5.3,7.35,7.35,0,0,0,10.24,1A6.87,6.87,0,0,0,148.29,52l2.27-23.4-4.76-.46Z"/></g><g id="_Group_9" data-name="&lt;Group&gt;"><path class="cls-2" d="M161.22,30,154.07,29l-4.4,30.09,4.54.66,1.65-11.33,2.62.38.41.06L160,60.56l4.9.71-1.44-13.62a7.15,7.15,0,0,0,3.22-5l.63-4.37a7.68,7.68,0,0,0-.81-5.32Q165,30.57,161.22,30Zm1.65,7.65-.64,4.39a2.58,2.58,0,0,1-1,1.74,2.53,2.53,0,0,1-2,.5l-2.74-.4,1.41-9.63,2.73.4A2.32,2.32,0,0,1,162.87,37.66Z"/></g><g id="_Group_10" data-name="&lt;Group&gt;"><polygon class="cls-2" points="166.78 61.62 179.6 64.1 180.48 59.58 172.16 57.97 173.74 49.82 179.82 51 180.69 46.47 174.62 45.29 176.2 37.15 184.51 38.76 185.39 34.23 172.58 31.75 166.78 61.62"/></g></g><polygon class="cls-2" points="131.72 2.03 122.86 2.03 122.86 12.19 117.75 12.19 117.75 14.22 131.72 14.22 127.03 8.12 131.72 2.03"/><polygon class="cls-2" points="89.55 2.03 80.68 2.03 85.37 8.12 80.68 14.22 94.65 14.22 94.65 12.19 89.55 12.19 89.55 2.03"/><path class="cls-2" d="M90.12,11.62h32.17V0H90.12Zm29.18-6.3a.48.48,0,0,1,.48.49.47.47,0,0,1-.48.48.48.48,0,0,1-.49-.48A.49.49,0,0,1,119.3,5.32ZM111.07,3h4.16V4h-3V5.2H115v.94H112.2V7.67h3.14v.95h-4.27Zm-7.24,0H105V5.21h2.22V3h1.13V8.62h-1.13V6.16H105V8.62h-1.14ZM97.06,3h4.47V4H99.86V8.62H98.73V4H97.06Zm-4,2.32a.49.49,0,0,1,.49.49.49.49,0,0,1-1,0A.49.49,0,0,1,93.1,5.32Z"/><g id="_Group_11" data-name="&lt;Group&gt;"><g id="_Group_12" data-name="&lt;Group&gt;"><path class="cls-2" d="M30.27,31l.58,30.83,4.7-.89-.21-7.07L40,53l2.36,6.67,4.74-.9L36.47,29.81Zm4.94,18.35-.56-12.09,3.9,11.46Z"/></g><g id="_Group_13" data-name="&lt;Group&gt;"><path class="cls-2" d="M60.07,33.54a7.07,7.07,0,0,0-2.79-4.79,6.85,6.85,0,0,0-5.35-1.41l-7.14,1L49,58.47l7.14-1a6.87,6.87,0,0,0,4.75-2.81,7,7,0,0,0,1.39-5.39ZM57.34,51.93a2.39,2.39,0,0,1-1.72,1l-2.74.38-2.9-21L52.72,32a2.48,2.48,0,0,1,1.92.51,2.57,2.57,0,0,1,1,1.75L57.83,50A2.57,2.57,0,0,1,57.34,51.93Z"/></g><g id="_Group_14" data-name="&lt;Group&gt;"><polygon class="cls-2" points="72.34 48.89 66.44 25.62 61.65 26.05 69.76 55.85 76.05 55.29 78.86 24.51 74.07 24.94 72.34 48.89"/></g><g id="_Group_15" data-name="&lt;Group&gt;"><polygon class="cls-2" points="87.78 49.94 87.44 41.65 93.62 41.4 93.43 36.79 87.25 37.04 86.91 28.75 95.38 28.4 95.19 23.8 82.14 24.33 83.38 54.73 96.42 54.2 96.24 49.59 87.78 49.94"/></g><g id="_Group_16" data-name="&lt;Group&gt;"><polygon class="cls-2" points="108.97 44.25 103.22 23.7 98.07 23.62 97.58 54.05 102.16 54.12 102.48 34.64 108.47 54.22 113.4 54.3 113.89 23.88 109.31 23.8 108.97 44.25"/></g><g id="_Group_17" data-name="&lt;Group&gt;"><polygon class="cls-2" points="116.39 28.5 121.26 28.75 119.95 54.51 124.53 54.74 125.84 28.98 130.69 29.23 130.92 24.62 116.62 23.9 116.39 28.5"/></g><g id="_Group_18" data-name="&lt;Group&gt;"><path class="cls-2" d="M141.42,49.14a2.63,2.63,0,0,1-4.65,1.41,2.51,2.51,0,0,1-.59-1.92l2.25-23.35L134,24.84,131.7,48.25a7.3,7.3,0,0,0,11.85,6.31,6.88,6.88,0,0,0,2.62-4.91l2.26-23.41-4.75-.46Z"/></g><g id="_Group_19" data-name="&lt;Group&gt;"><path class="cls-2" d="M159.1,27.7l-7.16-1-4.39,30.08,4.53.67,1.66-11.34,2.62.39.41.06,1.09,11.73,4.91.72-1.44-13.63a7.09,7.09,0,0,0,3.21-5.05l.64-4.36a7.61,7.61,0,0,0-.82-5.32Q162.89,28.26,159.1,27.7Zm1.65,7.65-.64,4.39a2.54,2.54,0,0,1-1,1.74,2.48,2.48,0,0,1-2,.5l-2.73-.4L155.8,32l2.74.39A2.33,2.33,0,0,1,160.75,35.35Z"/></g><g id="_Group_20" data-name="&lt;Group&gt;"><polygon class="cls-2" points="164.66 59.31 177.48 61.8 178.35 57.27 170.04 55.66 171.62 47.52 177.69 48.69 178.57 44.17 172.5 42.99 174.08 34.84 182.39 36.45 183.27 31.93 170.45 29.44 164.66 59.31"/></g></g><g id="_Group_21" data-name="&lt;Group&gt;"><g id="_Group_22" data-name="&lt;Group&gt;"><path class="cls-2" d="M24.91,16.26c-3.91,1.1-7.79,2.33-11.64,3.63A9.92,9.92,0,0,0,7.6,15c-3.18-1.16-7,.66-7.55,4-.53,3,3.35,4.79,5.81,4.43a35.59,35.59,0,0,0,6.88-2.07c2,5.39.94,13.43,2.38,17.89a.32.32,0,0,0,.62-.17c-1.08-5.38.11-12.72-2-18.08l.21-.08c2.71-.92,5.43-1.78,8.17-2.6,5.81-1.75,11.71-3.24,17.63-4.54a309.48,309.48,0,0,1,37-5.37c.09,0,.09-.15,0-.15C59.24,8.41,41.75,11.54,24.91,16.26ZM6.57,22.11c-2,.5-6.61-.27-5-4.1,1-2.22,3.76-2.33,5.68-1.85a7.32,7.32,0,0,1,5,4.08C10.37,20.9,8.51,21.63,6.57,22.11Z"/></g><g id="_Group_23" data-name="&lt;Group&gt;"><path class="cls-2" d="M204.8,15a9.92,9.92,0,0,0-5.67,4.93c-3.85-1.3-7.72-2.53-11.64-3.63-16.84-4.72-34.32-7.85-51.85-8-.09,0-.09.14,0,.15a309.48,309.48,0,0,1,37,5.37c5.93,1.3,11.82,2.79,17.63,4.54,2.74.82,5.47,1.68,8.17,2.6l.21.08c-2.09,5.36-.9,12.7-2,18.08a.32.32,0,0,0,.62.17c1.45-4.46.36-12.5,2.38-17.89a35.59,35.59,0,0,0,6.88,2.07c2.46.36,6.34-1.39,5.81-4.43C211.76,15.62,208,13.8,204.8,15Zm1,7.15c-1.94-.48-3.8-1.21-5.69-1.87a7.37,7.37,0,0,1,5-4.08c1.92-.48,4.73-.37,5.68,1.85C212.44,21.84,207.81,22.61,205.83,22.11Z"/></g><g id="_Group_24" data-name="&lt;Group&gt;"><path class="cls-2" d="M191.84,78l-.55-.2c1.2-7.8,2.59-15.55,3.4-23.41,0-.08-.11-.09-.13,0C193.17,60.45,192,66.55,191,72.67c-.26,1.58-.54,3.16-.81,4.74a129.13,129.13,0,0,0-15.32-3.87c-6.4-1.4-12.85-2.52-19.34-3.41a200.94,200.94,0,0,0-37.16-2,.27.27,0,0,0,0,.54c18.9.66,37.6,2.21,56.13,6.18,4.62,1,9.2,2.16,13.77,3.38.57.15,1.14.31,1.7.49-.19,1.11-.37,2.22-.53,3.33a7.64,7.64,0,0,0,.65,4.81c1.49,2.87,5.09,1.2,6.34-.81C198.43,82.82,194.51,79.1,191.84,78Zm2.21,8.8c-4,2.82-3.49-4.13-3.34-5.17.12-.83.25-1.67.38-2.5A10.13,10.13,0,0,1,194,80.92C195.8,82.46,196.26,85.25,194.05,86.83Z"/></g><g id="_Group_25" data-name="&lt;Group&gt;"><path class="cls-2" d="M92.89,68.16a201,201,0,0,0-37.17,2c-6.48.89-12.94,2-19.33,3.41a128.8,128.8,0,0,0-15.33,3.87c-.27-1.58-.55-3.16-.81-4.74-1-6.12-2.18-12.22-3.58-18.27,0-.07-.14-.06-.13,0,.82,7.86,2.2,15.61,3.4,23.41l-.54.2c-2.68,1.07-6.6,4.79-4.58,8,1.25,2,4.85,3.68,6.35.81a7.64,7.64,0,0,0,.64-4.81c-.16-1.11-.34-2.22-.53-3.33.56-.18,1.13-.34,1.7-.49,4.57-1.22,9.15-2.39,13.78-3.38,18.52-4,37.22-5.52,56.13-6.18A.27.27,0,0,0,92.89,68.16ZM17.18,86.83c-2.21-1.58-1.75-4.37,0-5.91a10.18,10.18,0,0,1,3-1.76c.12.83.25,1.67.37,2.5C20.67,82.7,21.15,89.65,17.18,86.83Z"/></g></g><g id="_Group_26" data-name="&lt;Group&gt;"><path class="cls-2" d="M16.14,45.6a1.73,1.73,0,1,0,1.74,1.73A1.72,1.72,0,0,0,16.14,45.6Z"/></g><g id="_Group_27" data-name="&lt;Group&gt;"><path class="cls-2" d="M195.24,45.6A1.73,1.73,0,1,0,197,47.33,1.73,1.73,0,0,0,195.24,45.6Z"/></g></g></g></svg>