<svg xmlns="http://www.w3.org/2000/svg" viewBox="0 0 118.54 118.54"><defs><style>.cls-1{fill:none;}.cls-2{fill:#272525;}</style></defs><title>Asset 5</title><g id="Layer_2" data-name="Layer 2"><g id="Badge"><polygon class="cls-1" points="45.01 32.14 44.51 32.27 44.51 45.4 45.01 45.26 45.01 32.14"/><rect class="cls-1" x="45.6" y="31.54" width="1.17" height="14.16" rx="0.3" ry="0.3"/><path class="cls-1" d="M60.46,35.06l-.18.06-.1,0-.15.08-.09.07-.13.1-.08.09-.1.12-.07.09a1.09,1.09,0,0,0-.08.15.47.47,0,0,0,0,.1,1.39,1.39,0,0,0-.06.19.24.24,0,0,0,0,.08h1.49a.3.3,0,0,1,.29.3.29.29,0,0,1-.29.29H59.35a.19.19,0,0,0,0,.07,1.17,1.17,0,0,0,.06.2.93.93,0,0,0,0,.1.64.64,0,0,0,.08.14.36.36,0,0,0,.07.1l.1.12.08.08.13.11.09.06.15.08.1,0,.18.06.09,0a1.36,1.36,0,0,0,.29,0,1.52,1.52,0,0,0,0-3,1.36,1.36,0,0,0-.29,0Z"/><path class="cls-1" d="M90.66,47.42h.6a.83.83,0,0,0,.83-.78l1.3-20.12a.84.84,0,0,0-.23-.62.8.8,0,0,0-.6-.27H50.63a.84.84,0,0,0-.83.84V46.59a.83.83,0,0,0,.83.83ZM81.81,26.14H91.9a.3.3,0,1,1,0,.59H81.81a.3.3,0,0,1,0-.59Zm-.43,1H91.47a.3.3,0,1,1,0,.59H81.38a.3.3,0,0,1,0-.59Zm-.42,1H91.05a.29.29,0,0,1,.29.29.3.3,0,0,1-.29.3H81a.3.3,0,0,1-.3-.3A.29.29,0,0,1,81,28.19Zm-.43,1H90.62a.3.3,0,0,1,0,.59H80.53a.3.3,0,0,1,0-.59ZM60.84,34.42a2.11,2.11,0,1,1-2.11,2.11A2.12,2.12,0,0,1,60.84,34.42Zm-6.29,0a2.11,2.11,0,1,1-2.11,2.11A2.12,2.12,0,0,1,54.55,34.42ZM50.84,41.8A1.16,1.16,0,0,1,52,40.64H91a1.15,1.15,0,0,1,.26,0,1.15,1.15,0,0,1,.9,1.16,2.51,2.51,0,0,1,0,.27l-1,4A1.18,1.18,0,0,1,90,47H52a1.16,1.16,0,0,1-1.16-1.16Z"/><path class="cls-1" d="M56.33,73.87h7.39a3,3,0,0,0,3-3V53.46H53.3V70.84a3,3,0,0,0,3,3Zm7.62-1H54.66a.31.31,0,0,1-.3-.3.3.3,0,0,1,.3-.29H64a.29.29,0,0,1,.3.29A.3.3,0,0,1,64,72.86ZM54.12,54.1H64a.3.3,0,1,1,0,.59H54.12a.3.3,0,0,1,0-.59Zm0,1.07H64a.3.3,0,1,1,0,.59H54.12a.3.3,0,0,1,0-.59Zm0,1.07H64a.3.3,0,1,1,0,.59H54.12a.3.3,0,0,1,0-.59Zm0,1.07H64a.3.3,0,1,1,0,.59H54.12a.3.3,0,0,1,0-.59Zm0,1.07H64a.29.29,0,0,1,.3.29.3.3,0,0,1-.3.3H54.12a.3.3,0,0,1-.29-.3A.29.29,0,0,1,54.12,58.38Zm0,1.07H64a.29.29,0,0,1,.3.29.3.3,0,0,1-.3.3H54.12a.3.3,0,0,1-.29-.3A.29.29,0,0,1,54.12,59.45Zm0,1.06H64a.3.3,0,1,1,0,.59H54.12a.3.3,0,0,1,0-.59Zm0,1.07H64a.3.3,0,1,1,0,.59H54.12a.3.3,0,0,1,0-.59Zm0,1.07H64a.3.3,0,1,1,0,.59H54.12a.3.3,0,0,1,0-.59Zm0,1.07H64a.3.3,0,1,1,0,.59H54.12a.3.3,0,0,1,0-.59Zm0,1.07H64a.29.29,0,0,1,.3.29.3.3,0,0,1-.3.3H54.12a.3.3,0,0,1-.29-.3A.29.29,0,0,1,54.12,64.79Zm0,1.06H64a.3.3,0,1,1,0,.6H54.12a.3.3,0,0,1,0-.6Zm0,1.07H64a.3.3,0,1,1,0,.59H54.12a.3.3,0,0,1,0-.59Zm0,1.07H64a.3.3,0,1,1,0,.59H54.12a.3.3,0,0,1,0-.59Zm0,1.07H64a.3.3,0,1,1,0,.59H54.12a.3.3,0,0,1,0-.59Zm0,1.07H64a.3.3,0,1,1,0,.59H54.12a.3.3,0,0,1,0-.59Zm-.29,1.36a.29.29,0,0,1,.29-.29H64a.29.29,0,0,1,.3.29.3.3,0,0,1-.3.3H54.12A.3.3,0,0,1,53.83,71.49Z"/><path class="cls-1" d="M52,46.36H90a.57.57,0,0,0,.55-.43l1-4a.59.59,0,0,0-.1-.5.58.58,0,0,0-.45-.22H52a.57.57,0,0,0-.57.57v4A.57.57,0,0,0,52,46.36Zm3.24-2.73H53.52a.29.29,0,0,1-.3-.29.3.3,0,0,1,.3-.3h1.72a.3.3,0,0,1,.3.3A.29.29,0,0,1,55.24,43.63ZM52.4,42H67.83a.3.3,0,0,1,0,.59H52.4a.3.3,0,1,1,0-.59Z"/><path class="cls-1" d="M54.55,38.05A1.52,1.52,0,1,0,53,36.53,1.52,1.52,0,0,0,54.55,38.05Z"/><path class="cls-1" d="M27.85,29.79h0L27,29.53V48l.84-.23v-18Z"/><polygon class="cls-1" points="26.41 29.45 25.14 29.45 25.14 48.09 26.42 48.09 26.41 29.45"/><polygon class="cls-1" points="32.01 31.91 32.01 45.62 33.16 45.34 33.16 32.2 32.01 31.91"/><path class="cls-1" d="M31.42,31.67a13.42,13.42,0,0,0-2-1.36V47.23a13.62,13.62,0,0,0,2-1.37Z"/><polygon class="cls-1" points="42.53 31.83 40.74 31.83 40.74 45.7 42.53 45.7 42.53 45.48 42.53 32.05 42.53 31.83"/><polygon class="cls-1" points="35.67 31.83 33.75 31.83 33.75 31.97 33.75 45.57 33.75 45.7 35.67 45.7 35.67 31.83"/><path class="cls-1" d="M59.27.59A58.68,58.68,0,1,0,118,59.27,58.74,58.74,0,0,0,59.27.59Zm0,115.1a56.43,56.43,0,1,1,56.42-56.42A56.48,56.48,0,0,1,59.27,115.69Z"/><path class="cls-1" d="M59.27,3.43A55.84,55.84,0,1,0,115.1,59.27,55.9,55.9,0,0,0,59.27,3.43ZM15.86,83.07l-.85-2,8.36-3.53-9.09,1.79-.68-1.61,7.52-5.47-8.34,3.53-.85-2,13.3-5.62L26.45,71l-8.77,5.91L28,74.68l1.16,2.77Zm9,10.29a3.38,3.38,0,0,1-2.37-1.16,3.32,3.32,0,0,1-.88-2.49,3.28,3.28,0,0,1,1.14-2.36L31,79.9l1.42,1.59-8.3,7.43a1.2,1.2,0,0,0-.41.86,1.18,1.18,0,0,0,.32.9,1.23,1.23,0,0,0,1.76.1l8.29-7.43L35.63,85l-8.32,7.45A3.3,3.3,0,0,1,24.82,93.36Zm11.92,7.35-1.16,1.83-5-3.15,7.69-12.22,1.85,1.16L33.56,98.71ZM50,95.25l-2.17-.78L43.69,106l-2-.73,4.13-11.53L43.59,93l.74-2.06,6.39,2.29Zm4.72,13.06-2.16-.25,1.64-14.34,2.16.25ZM57,76.59A3.63,3.63,0,0,1,53.39,73s0,0,0,0a3.61,3.61,0,0,1-.69-2.1V53.17a.3.3,0,0,1,.29-.3h.24V51.22H50.63a.29.29,0,0,1-.29-.29V48a1.43,1.43,0,0,1-1-.78l-2.16-1.3a.87.87,0,0,1-.72.39h-.56a.87.87,0,0,1-.76-.46l-.86.24h-.08A.27.27,0,0,1,44,46a.3.3,0,0,1-.12-.24h-.8V46a.29.29,0,0,1-.29.3H33.45a.29.29,0,0,1-.29-.3v-.05l-1.31.32a13.89,13.89,0,0,1-2.47,1.66.77.77,0,0,1-.75.6.76.76,0,0,1-.52-.21l-1.31.37H24.85a.31.31,0,0,1-.3-.3V29.15a.3.3,0,0,1,.3-.29h1.79a.17.17,0,0,1,.14,0l1.31.37a.77.77,0,0,1,1.29.39,13.66,13.66,0,0,1,2.47,1.65l1.31.32v-.05a.3.3,0,0,1,.29-.3h9.38a.3.3,0,0,1,.29.3v.21h1.06l.9-.24a.89.89,0,0,1,.83-.56h.56a.9.9,0,0,1,.44.12l.83-4.69a.3.3,0,0,1,.29-.24h1.22A1.42,1.42,0,0,1,50.63,25H92.56a1.42,1.42,0,0,1,1,.45A1.47,1.47,0,0,1,94,26.56l-1.3,20.12A1.42,1.42,0,0,1,91.26,48H91v2.92a.3.3,0,0,1-.3.29H82.24l-2,2.15a.27.27,0,0,1-.21.09H67.35V70.84a3.62,3.62,0,0,1-.7,2.1s0,0,0,0A3.62,3.62,0,0,1,63,76.59Zm12.88,30.85-1.42-9L68,107.74l-1.73.27-3.5-8.61,1.42,8.94-2.15.34L59.8,94.42l3.08-.49,3.63,9.93.3-10.56,3-.47L72,107.1Zm9.44-3.09-6.7-12.79,5.49-2.88,1,1.94-3.56,1.87L77.4,96,80,94.61l1,1.94-2.6,1.36,1.83,3.49,3.56-1.86,1,1.94ZM93,95.17l-2.5,2.35L80.58,87l2.49-2.34a3.43,3.43,0,0,1,4.85.17l5.17,5.5A3.39,3.39,0,0,1,94,92.78,3.31,3.31,0,0,1,93,95.17Zm6.79-7.85-12-8,1.2-1.81,12,8Zm5.39-10.06-.75,2.14L91.6,72.27l1-2.82L107,72l-.76,2.16-3.3-.63-.76,2.15Z"/><path class="cls-1" d="M86.4,86.29a1.24,1.24,0,0,0-1.76-.07l-1,.9,6.88,7.33,1-.89a1.17,1.17,0,0,0,.38-.88,1.19,1.19,0,0,0-.34-.88Z"/><polygon class="cls-1" points="100.31 74.63 100.84 73.11 95.21 71.98 100.31 74.63"/><path class="cls-2" d="M66.66,73s0,0,0,0a3.62,3.62,0,0,0,.7-2.1V53.46H80a.27.27,0,0,0,.21-.09l2-2.15h8.42a.3.3,0,0,0,.3-.29V48h.3a1.42,1.42,0,0,0,1.42-1.33L94,26.56a1.47,1.47,0,0,0-.39-1.07,1.42,1.42,0,0,0-1-.45H50.63a1.42,1.42,0,0,0-1.38,1.1H48a.3.3,0,0,0-.29.24l-.83,4.69a.9.9,0,0,0-.44-.12h-.56a.89.89,0,0,0-.83.56l-.9.24H43.12v-.21a.3.3,0,0,0-.29-.3H33.45a.3.3,0,0,0-.29.3v.05l-1.31-.32a13.66,13.66,0,0,0-2.47-1.65.77.77,0,0,0-1.29-.39l-1.31-.37a.17.17,0,0,0-.14,0H24.85a.3.3,0,0,0-.3.29V48.38a.31.31,0,0,0,.3.3H26.8l1.31-.37a.76.76,0,0,0,.52.21.77.77,0,0,0,.75-.6,13.89,13.89,0,0,0,2.47-1.66l1.31-.32V46a.29.29,0,0,0,.29.3h9.38a.29.29,0,0,0,.29-.3v-.21h.8A.3.3,0,0,0,44,46a.27.27,0,0,0,.17.06h.08l.86-.24a.87.87,0,0,0,.76.46h.56a.87.87,0,0,0,.72-.39l2.16,1.3a1.43,1.43,0,0,0,1,.78v3a.29.29,0,0,0,.29.29h2.61v1.65H53a.3.3,0,0,0-.29.3V70.84a3.61,3.61,0,0,0,.69,2.1s0,0,0,0A3.63,3.63,0,0,0,57,76.59h6A3.62,3.62,0,0,0,66.66,73ZM53.83,51.22h27.6l-1.58,1.65h-26ZM43.12,32.34h.8V45.19h-.8Zm-18-2.89h1.27V48.09H25.14ZM27,48V29.53l.84.24h0v18Zm2.41-17.69a13.42,13.42,0,0,1,2,1.36V45.86a13.62,13.62,0,0,1-2,1.37ZM32,45.62V31.91l1.15.29V45.34Zm1.74,0V31.83h1.92V45.7H33.75Zm8.78.13H40.74V31.83h1.79V45.7Zm2-13.43.5-.13V45.26l-.5.14Zm2,13.43h-.56a.31.31,0,0,1-.31-.3V31.84a.3.3,0,0,1,.31-.3h.56a.3.3,0,0,1,.31.3V45.4A.31.31,0,0,1,46.47,45.7Zm3.33.89V26.47a.84.84,0,0,1,.83-.84H92.56a.8.8,0,0,1,.6.27.84.84,0,0,1,.23.62l-1.3,20.12a.83.83,0,0,1-.83.78H50.63A.83.83,0,0,1,49.8,46.59Zm3.5,6.87H66.76V70.84a3,3,0,0,1-3,3H56.33a3,3,0,0,1-3-3Z"/><path class="cls-2" d="M60.84,38.64a2.11,2.11,0,1,0-2.11-2.11A2.12,2.12,0,0,0,60.84,38.64Zm1.52-2.11a1.52,1.52,0,0,1-1.52,1.52,1.36,1.36,0,0,1-.29,0l-.09,0-.18-.06-.1,0L60,37.81l-.09-.06-.13-.11-.08-.08-.1-.12a.36.36,0,0,1-.07-.1.64.64,0,0,1-.08-.14.93.93,0,0,1,0-.1,1.17,1.17,0,0,1-.06-.2.19.19,0,0,1,0-.07h1.49a.29.29,0,0,0,.29-.29.3.3,0,0,0-.29-.3H59.35a.24.24,0,0,1,0-.08,1.39,1.39,0,0,1,.06-.19.47.47,0,0,1,0-.1,1.09,1.09,0,0,1,.08-.15l.07-.09.1-.12.08-.09.13-.1.09-.07.15-.08.1,0,.18-.06.09,0a1.36,1.36,0,0,1,.29,0A1.52,1.52,0,0,1,62.36,36.53Z"/><path class="cls-2" d="M54.55,38.64a2.11,2.11,0,1,0-2.11-2.11A2.12,2.12,0,0,0,54.55,38.64Zm0-3.63A1.52,1.52,0,1,1,53,36.53,1.52,1.52,0,0,1,54.55,35Z"/><path class="cls-2" d="M52,47H90a1.18,1.18,0,0,0,1.13-.87l1-4a2.51,2.51,0,0,0,0-.27,1.15,1.15,0,0,0-.9-1.16,1.15,1.15,0,0,0-.26,0H52a1.16,1.16,0,0,0-1.16,1.16v4A1.16,1.16,0,0,0,52,47Zm-.57-5.15a.57.57,0,0,1,.57-.57H91a.58.58,0,0,1,.45.22.59.59,0,0,1,.1.5l-1,4a.57.57,0,0,1-.55.43H52a.57.57,0,0,1-.57-.57Z"/><path class="cls-2" d="M54.12,54.69H64a.3.3,0,1,0,0-.59H54.12a.3.3,0,0,0,0,.59Z"/><path class="cls-2" d="M54.12,55.76H64a.3.3,0,1,0,0-.59H54.12a.3.3,0,0,0,0,.59Z"/><path class="cls-2" d="M54.12,56.83H64a.3.3,0,1,0,0-.59H54.12a.3.3,0,0,0,0,.59Z"/><path class="cls-2" d="M54.12,57.9H64a.3.3,0,1,0,0-.59H54.12a.3.3,0,0,0,0,.59Z"/><path class="cls-2" d="M54.12,59H64a.3.3,0,0,0,.3-.3.29.29,0,0,0-.3-.29H54.12a.29.29,0,0,0-.29.29A.3.3,0,0,0,54.12,59Z"/><path class="cls-2" d="M54.12,60H64a.3.3,0,0,0,.3-.3.29.29,0,0,0-.3-.29H54.12a.29.29,0,0,0-.29.29A.3.3,0,0,0,54.12,60Z"/><path class="cls-2" d="M54.12,61.1H64a.3.3,0,1,0,0-.59H54.12a.3.3,0,0,0,0,.59Z"/><path class="cls-2" d="M54.12,62.17H64a.3.3,0,1,0,0-.59H54.12a.3.3,0,0,0,0,.59Z"/><path class="cls-2" d="M54.12,63.24H64a.3.3,0,1,0,0-.59H54.12a.3.3,0,0,0,0,.59Z"/><path class="cls-2" d="M54.12,64.31H64a.3.3,0,1,0,0-.59H54.12a.3.3,0,0,0,0,.59Z"/><path class="cls-2" d="M54.12,65.38H64a.3.3,0,0,0,.3-.3.29.29,0,0,0-.3-.29H54.12a.29.29,0,0,0-.29.29A.3.3,0,0,0,54.12,65.38Z"/><path class="cls-2" d="M54.12,66.45H64a.3.3,0,1,0,0-.6H54.12a.3.3,0,0,0,0,.6Z"/><path class="cls-2" d="M54.12,67.51H64a.3.3,0,1,0,0-.59H54.12a.3.3,0,0,0,0,.59Z"/><path class="cls-2" d="M54.12,68.58H64A.3.3,0,1,0,64,68H54.12a.3.3,0,0,0,0,.59Z"/><path class="cls-2" d="M54.12,69.65H64a.3.3,0,1,0,0-.59H54.12a.3.3,0,0,0,0,.59Z"/><path class="cls-2" d="M54.12,70.72H64a.3.3,0,1,0,0-.59H54.12a.3.3,0,0,0,0,.59Z"/><path class="cls-2" d="M64,71.79a.3.3,0,0,0,.3-.3.29.29,0,0,0-.3-.29H54.12a.29.29,0,0,0-.29.29.3.3,0,0,0,.29.3Z"/><path class="cls-2" d="M64,72.27H54.66a.3.3,0,0,0-.3.29.31.31,0,0,0,.3.3H64a.3.3,0,0,0,.3-.3A.29.29,0,0,0,64,72.27Z"/><path class="cls-2" d="M81.81,26.73H91.9a.3.3,0,1,0,0-.59H81.81a.3.3,0,0,0,0,.59Z"/><path class="cls-2" d="M81.38,27.75H91.47a.3.3,0,1,0,0-.59H81.38a.3.3,0,0,0,0,.59Z"/><path class="cls-2" d="M81,28.78H91.05a.3.3,0,0,0,.29-.3.29.29,0,0,0-.29-.29H81a.29.29,0,0,0-.3.29A.3.3,0,0,0,81,28.78Z"/><path class="cls-2" d="M80.53,29.8H90.62a.3.3,0,0,0,0-.59H80.53a.3.3,0,0,0,0,.59Z"/><path class="cls-2" d="M52.4,42.57H67.83a.3.3,0,0,0,0-.59H52.4a.3.3,0,1,0,0,.59Z"/><path class="cls-2" d="M55.24,43H53.52a.3.3,0,0,0-.3.3.29.29,0,0,0,.3.29h1.72a.29.29,0,0,0,.3-.29A.3.3,0,0,0,55.24,43Z"/><path class="cls-2" d="M59.27,2.84a56.43,56.43,0,1,0,56.42,56.43A56.49,56.49,0,0,0,59.27,2.84Zm0,112.26A55.84,55.84,0,1,1,115.1,59.27,55.9,55.9,0,0,1,59.27,115.1Z"/><path class="cls-2" d="M59.27,0a59.27,59.27,0,1,0,59.27,59.27A59.34,59.34,0,0,0,59.27,0Zm0,118A58.68,58.68,0,1,1,118,59.27,58.75,58.75,0,0,1,59.27,118Z"/><polygon class="cls-2" points="28 74.68 17.68 76.93 26.45 71.02 25.23 68.14 11.93 73.76 12.78 75.77 21.11 72.24 13.6 77.71 14.28 79.32 23.37 77.53 15.01 81.06 15.86 83.07 29.16 77.45 28 74.68"/><path class="cls-2" d="M34.11,83.35l-8.29,7.43a1.23,1.23,0,0,1-1.76-.1,1.18,1.18,0,0,1-.32-.9,1.2,1.2,0,0,1,.41-.86l8.3-7.43L31,79.9l-8.32,7.45a3.28,3.28,0,0,0-1.14,2.36,3.32,3.32,0,0,0,.88,2.49,3.38,3.38,0,0,0,2.37,1.16,3.3,3.3,0,0,0,2.49-.87L35.63,85Z"/><polygon class="cls-2" points="38.25 87.17 30.56 99.39 35.58 102.55 36.74 100.71 33.56 98.71 40.1 88.33 38.25 87.17"/><polygon class="cls-2" points="43.59 92.96 45.77 93.74 41.64 105.27 43.69 106 47.82 94.47 49.98 95.25 50.72 93.19 44.33 90.9 43.59 92.96"/><rect class="cls-2" x="47.23" y="99.93" width="14.43" height="2.18" transform="matrix(0.11, -0.99, 0.99, 0.11, -52.11, 143.59)"/><polygon class="cls-2" points="66.81 93.31 66.51 103.86 62.88 93.93 59.8 94.42 62.06 108.68 64.21 108.34 62.79 99.4 66.3 108.01 68.02 107.74 68.47 98.48 69.89 107.44 72.04 107.1 69.77 92.83 66.81 93.31"/><polygon class="cls-2" points="80.24 101.4 78.41 97.92 81.01 96.55 80 94.61 77.4 95.98 75.57 92.49 79.13 90.62 78.12 88.68 72.63 91.56 79.33 104.35 84.82 101.48 83.8 99.54 80.24 101.4"/><path class="cls-2" d="M87.92,84.81a3.43,3.43,0,0,0-4.85-.17L80.58,87l9.88,10.54L93,95.17A3.31,3.31,0,0,0,94,92.78a3.39,3.39,0,0,0-.94-2.47Zm3.61,8.75-1,.89-6.88-7.33,1-.9a1.24,1.24,0,0,1,1.76.07l5.17,5.51a1.19,1.19,0,0,1,.34.88A1.17,1.17,0,0,1,91.53,93.56Z"/><rect class="cls-2" x="93.25" y="75.21" width="2.18" height="14.43" transform="translate(-26.47 115.58) rotate(-56.49)"/><path class="cls-2" d="M106.25,74.14,107,72,92.6,69.45l-1,2.82,12.79,7.13.75-2.14-3-1.6.76-2.15Zm-5.94.49L95.21,72l5.63,1.13Z"/></g></g></svg>