<svg xmlns="http://www.w3.org/2000/svg" viewBox="0 0 158.97 116.78"><title>Asset 3</title><g id="Layer_2" data-name="Layer 2"><g id="Badge"><path d="M157,42.28l-.28-.12-.29-.11c-.09,0-.19-.08-.28-.12l-.29-.12-.29-.11a2.36,2.36,0,0,0-.28-.12l-.29-.11a1.69,1.69,0,0,0-.28-.12l-.29-.12-.28-.11-.29-.12-.28-.11a1.78,1.78,0,0,0-.29-.12,2.52,2.52,0,0,0-.29-.12l-.28-.11-.29-.12-.29-.12-.28-.11a2.52,2.52,0,0,0-.29-.12l-.28-.11-.29-.12a2.52,2.52,0,0,0-.29-.12l-.28-.11a2.52,2.52,0,0,0-.29-.12l-.28-.11a1.78,1.78,0,0,0-.29-.12,2.52,2.52,0,0,0-.29-.12L149,39a1.48,1.48,0,0,0-.29-.12l-.28-.12-.29-.11a2.52,2.52,0,0,0-.29-.12l-.28-.11a1.48,1.48,0,0,0-.29-.12l-.28-.12-.29-.11a2.52,2.52,0,0,0-.29-.12l-.28-.12-.29-.11c-.09,0-.19-.08-.28-.12l-.29-.12L145,37.4l-.28-.12-.29-.11a1.39,1.39,0,0,0-.28-.12l-.29-.12-.28-.11-.29-.12-.29-.11a1.39,1.39,0,0,0-.28-.12,2.9,2.9,0,0,0-1.28-.3h-6a3,3,0,0,0-2.25,1l-.09,0-.29-.11a1.69,1.69,0,0,0-.28-.12l-.29-.12-.29-.11c-.09-.05-.19-.08-.28-.12l-.29-.11a2.94,2.94,0,0,0-1.28-.3H123.6a3,3,0,0,0-3,3v2l-.07,0-.29-.11-.28-.12-.28-.12-.29-.11-.29-.12-.28-.11-.29-.12-.29-.12-.28-.11-.29-.12-.28-.11-.29-.12-.28-.12-.29-.11-.29-.12-.29-.12-.28-.11-.28-.12-.29-.12-.28-.11-.3-.12-.28-.11-.28-.12-.29-.12-.29-.11-.28-.12-.29-.11c-.09-.05-.19-.08-.28-.12l-.29-.12-.29-.11-.28-.12-.29-.12-.28-.11-.29-.12-.29-.11c-.09-.05-.19-.08-.28-.12l-.29-.12-.28-.11a11.18,11.18,0,0,0-4.44-.9,11,11,0,0,0-7.93,3.27,9.69,9.69,0,0,0-.75.83l-.21-.07a1.78,1.78,0,0,0-.29-.12l-.28-.12-.29-.11a2.52,2.52,0,0,0-.29-.12l-.28-.12-.29-.11c-.09-.05-.19-.08-.28-.12l-.29-.11a1.48,1.48,0,0,0-.29-.12l-.28-.12-.28-.11a1.88,1.88,0,0,0-.3-.12l-.28-.11a1.69,1.69,0,0,0-.28-.12l-.29-.12L91.77,38l-.28-.11-.29-.12-.28-.11-.29-.12-.28-.11-.29-.12-.29-.12-.28-.11A1.78,1.78,0,0,0,89.2,37l-.29-.12-.28-.11-.29-.12-.28-.11a2.91,2.91,0,0,0-1.29-.3h-6a3,3,0,0,0-3,3v1.91l0,0L77.45,41l-.28-.11-.28-.12-.3-.12-.28-.11L76,40.37l-.28-.11-.29-.12L75.17,40l-.29-.11-.29-.12-.28-.11L74,39.56l-.28-.12-.29-.11-.29-.12-.28-.12L72.59,39l-.29-.12L72,38.75l-.29-.12-.28-.12-.29-.11-.28-.12-.29-.12-.29-.11L70,37.93l-.29-.12-.28-.11-.29-.12-.28-.11-.29-.12-.29-.12L68,37.12,67.74,37l-.3-.12-.28-.11a12.23,12.23,0,0,0-5-1,10.35,10.35,0,0,0-8.53,3.92l-.26-.1-.29-.12-.29-.11a1.48,1.48,0,0,0-.29-.12,2.36,2.36,0,0,0-.28-.12L52,39a1.39,1.39,0,0,0-.28-.12l-.29-.12-.29-.11a2.36,2.36,0,0,0-.28-.12l-.29-.11a1.39,1.39,0,0,0-.28-.12L50,38.21l-.28-.11L49.4,38l-.29-.12-.28-.11a2.52,2.52,0,0,0-.29-.12l-.29-.12L48,37.4l-.28-.12-.29-.11a1.78,1.78,0,0,0-.29-.12l-.28-.12-.29-.11a2.52,2.52,0,0,0-.29-.12L46,36.59a1.48,1.48,0,0,0-.29-.12,2.9,2.9,0,0,0-1.28-.3H29.51a3,3,0,0,0-3,3v2.36l-.09,0-.29-.11-.29-.12-.28-.11L25.28,41,25,40.9l-.29-.11a2.52,2.52,0,0,0-.29-.12l-.28-.12-.29-.11-.29-.12-.28-.11a2.52,2.52,0,0,0-.29-.12L22.71,40l-.29-.11-.28-.12-.29-.12-.28-.11-.29-.12L21,39.28c-.09-.05-.19-.08-.28-.12L20.42,39l-.29-.11-.28-.12-.29-.11a2.36,2.36,0,0,0-.28-.12L19,38.46l-.29-.11a2.36,2.36,0,0,0-.28-.12l-.29-.12L17.85,38l-.29-.12-.28-.12L17,37.65l-.29-.12-.28-.11-.29-.12-.29-.12-.28-.11a11.05,11.05,0,0,0-4.42-.9H3a3,3,0,0,0-3,3V72.28a3,3,0,0,0,2,2.81l.29.12.28.11.29.12.28.11.29.12.29.12L4,75.9l.29.12.28.11.29.12.29.12.28.11a2.52,2.52,0,0,0,.29.12l.28.11a1.78,1.78,0,0,0,.29.12l.28.12.29.11a1.78,1.78,0,0,0,.29.12l.29.12.28.11a2.52,2.52,0,0,0,.29.12l.28.11a1.78,1.78,0,0,0,.29.12c.09,0,.19.08.28.12l.29.11a1.48,1.48,0,0,0,.29.12l.28.12.29.11c.09,0,.19.08.28.12l.29.11a1.48,1.48,0,0,0,.29.12l.28.12.29.11a2.36,2.36,0,0,0,.28.12l.29.12.28.11.29.12.29.11a1.39,1.39,0,0,0,.28.12l.29.12.28.11L14,80l.29.11a1.39,1.39,0,0,0,.28.12l.29.12.28.11a1.78,1.78,0,0,0,.29.12l.28.11a1.78,1.78,0,0,0,.29.12l.29.12a2.9,2.9,0,0,0,1.28.3h8.16a10.91,10.91,0,0,0,7.9-3.31l.47-.52.13,0a2.52,2.52,0,0,0,.29.12l.28.11a1.48,1.48,0,0,0,.29.12,2.52,2.52,0,0,0,.29.12l.28.11a1.48,1.48,0,0,0,.29.12l.28.12.29.11a2.52,2.52,0,0,0,.29.12l.28.11a1.48,1.48,0,0,0,.29.12l.28.12.29.11a2.36,2.36,0,0,0,.28.12l.29.12.28.11.29.12.29.11a1.39,1.39,0,0,0,.28.12l.29.12.29.11c.09.05.19.08.28.12l.29.11a1.39,1.39,0,0,0,.28.12l.29.12.28.11.29.12.29.11a1.69,1.69,0,0,0,.28.12l.29.12a2.9,2.9,0,0,0,1.28.3H59a3,3,0,0,0,3-3V76.46l.1,0,.29.12.28.12.29.11.29.12.28.12.29.11.28.12.29.11.28.12.29.12.28.11.29.12.29.12.28.11.29.12.29.12.28.11.29.12.28.11.29.12.28.11.29.12.29.12.28.11.29.12.29.12.29.11.27.12.3.12.28.11.29.12.28.11.29.12.28.12.29.11.23.1a12,12,0,0,0,4.76.92,12.36,12.36,0,0,0,3.73-.52,9.78,9.78,0,0,0,5.08-3.48,1,1,0,0,0,.18.06,1.48,1.48,0,0,0,.29.12c.09,0,.19.08.28.12l.29.11a1.48,1.48,0,0,0,.29.12l.28.12.29.11c.09,0,.19.08.28.12l.29.11a1.48,1.48,0,0,0,.29.12l.28.12.29.11c.09,0,.19.08.28.12l.29.12.28.11.29.12.29.11c.09,0,.19.08.28.12l.29.12.29.11a2.36,2.36,0,0,0,.28.12l.29.11a1.39,1.39,0,0,0,.28.12l.29.12.28.11a1.78,1.78,0,0,0,.29.12l.28.11.29.12.29.12a2.9,2.9,0,0,0,1.28.3h6a3,3,0,0,0,3-3v-2l.18.06.28.12.28.11.3.12.28.12.29.11.28.12.29.12.29.11.28.12.29.11.28.12.29.12.29.11.28.12.29.12.28.11.29.12.29.11.28.12.29.12.28.11.29.12.28.11.29.12.29.12.28.11.29.12.28.11a1.78,1.78,0,0,0,.29.12l.29.12.28.11.29.12.28.12.29.11.29.12.28.11.29.12.28.12a11.18,11.18,0,0,0,4.44.9,11,11,0,0,0,7.89-3.26,10.73,10.73,0,0,0,.79-.86l.11,0,.28.11a1.78,1.78,0,0,0,.29.12,2.52,2.52,0,0,0,.29.12l.28.11a1.78,1.78,0,0,0,.29.12l.29.12.28.11a2.52,2.52,0,0,0,.29.12l.28.11a1.78,1.78,0,0,0,.29.12l.28.12.29.11a2.52,2.52,0,0,0,.29.12l.29.12.28.11c.09,0,.19.08.28.12l.29.11a1.69,1.69,0,0,0,.28.12l.29.12.29.11c.09.05.19.08.28.12l.29.11a1.69,1.69,0,0,0,.28.12c.1,0,.2.08.3.12l.27.11a1.88,1.88,0,0,0,.3.12l.28.11a1.48,1.48,0,0,0,.29.12c.09,0,.19.08.28.12a2.9,2.9,0,0,0,1.28.3h6a3,3,0,0,0,2.31-1.1l.24.09a2.52,2.52,0,0,0,.29.12l.28.11a2.52,2.52,0,0,0,.29.12l.28.11a1.48,1.48,0,0,0,.29.12c.09,0,.19.08.28.12a3,3,0,0,0,1.33.31H156a3,3,0,0,0,3-3V45.09A3,3,0,0,0,157,42.28ZM19.3,64.05a8.05,8.05,0,0,1-2.38,5.82,7.88,7.88,0,0,1-5.78,2.41H3V39.16h8.15a7.82,7.82,0,0,1,5.79,2.42,8,8,0,0,1,2.37,5.79ZM44.4,45.19H35.51V52.7H42v6h-6.5v7.51H44.4v6H29.51V39.16H44.4ZM70.79,63.73a9.53,9.53,0,0,1-1.85,6.07,6.8,6.8,0,0,1-3.61,2.48,9.44,9.44,0,0,1-2.85.39,8.18,8.18,0,0,1-5-1.53A8.36,8.36,0,0,1,54.8,67.8a13.15,13.15,0,0,1-1.11-4.74l0-.58,5.75-.42.06.57a6.42,6.42,0,0,0,1.32,3.7A1.89,1.89,0,0,0,62.3,67a2.39,2.39,0,0,0,2-1.28,3.23,3.23,0,0,0,.4-1.79,5.36,5.36,0,0,0-1.65-3.55l-4.25-4a18.82,18.82,0,0,1-3.5-4.31,10.19,10.19,0,0,1-1.14-4.76,8.41,8.41,0,0,1,3.16-7.08,7.88,7.88,0,0,1,4.84-1.47A8.76,8.76,0,0,1,66.92,40a7.28,7.28,0,0,1,2.52,2.72,9.84,9.84,0,0,1,1.12,3.93l0,.54-5.78,1-.06-.64a5,5,0,0,0-1-2.73,1.76,1.76,0,0,0-1.45-.58,1.61,1.61,0,0,0-1.5.88,4,4,0,0,0-.47,2,6.46,6.46,0,0,0,1.74,4.07,15.44,15.44,0,0,0,2.06,2c1.15,1,1.89,1.61,2.27,2a17.17,17.17,0,0,1,2.84,3.63A16,16,0,0,1,70,60.46a9.25,9.25,0,0,1,.75,3.27Zm16,8.55h-6V39.18h6Zm26.68-21h-6.19V47a2.17,2.17,0,0,0-2.17-2.18,2,2,0,0,0-1.53.64,2.12,2.12,0,0,0-.63,1.54V64.43a2.1,2.1,0,0,0,.63,1.53,2.06,2.06,0,0,0,1.53.62,2.08,2.08,0,0,0,1.54-.63,2,2,0,0,0,.63-1.51V58.76h-2.67v-6h8.86V64.48a8.23,8.23,0,0,1-16.45,0V47.06a8.23,8.23,0,0,1,8.24-8.23,7.87,7.87,0,0,1,5.82,2.42,8,8,0,0,1,2.39,5.81Zm28,21h-6.2L129.61,55V72.28h-6V39.16h6.45l5.34,18v-18h6Z"/><path d="M11.3,45.27H9V66.33H11.3a2,2,0,0,0,1.5-.65,2.13,2.13,0,0,0,.63-1.53V47.45a2.11,2.11,0,0,0-.64-1.55A2,2,0,0,0,11.3,45.27Z"/><path d="M79.29,21.05a.47.47,0,0,0,.47-.47V.47a.47.47,0,1,0-.94,0V20.58A.47.47,0,0,0,79.29,21.05Z"/><path d="M59.37,22.82a.47.47,0,0,0,.4.22A.46.46,0,0,0,60,23a.47.47,0,0,0,.15-.65L48.26,3.42a.47.47,0,0,0-.65-.15.48.48,0,0,0-.15.65Z"/><path d="M42.35,28.69a.53.53,0,0,0,.27.08.46.46,0,0,0,.39-.21.47.47,0,0,0-.12-.65L20.5,12.5a.47.47,0,1,0-.54.77Z"/><path d="M115.57,28.56a.46.46,0,0,0,.39.21.5.5,0,0,0,.26-.08l22.4-15.42a.47.47,0,1,0-.54-.77L115.69,27.91A.46.46,0,0,0,115.57,28.56Z"/><path d="M98.55,23a.5.5,0,0,0,.26.08.46.46,0,0,0,.39-.22l11.91-18.9a.47.47,0,1,0-.8-.5L98.41,22.31A.47.47,0,0,0,98.55,23Z"/><path d="M122.78,31.93a.48.48,0,0,0-.22.63.47.47,0,0,0,.43.27.46.46,0,0,0,.2,0l16-7.75a.47.47,0,0,0-.42-.85Z"/><path d="M107.48,25.33a.46.46,0,0,0,.66,0l10.45-10.44a.47.47,0,0,0-.67-.67L107.48,24.67A.45.45,0,0,0,107.48,25.33Z"/><path d="M89.06,21.54l.13,0a.46.46,0,0,0,.45-.33L93.27,9.35a.47.47,0,0,0-.9-.28L88.74,21A.48.48,0,0,0,89.06,21.54Z"/><path d="M68.93,21.23a.47.47,0,0,0,.45.33l.14,0a.47.47,0,0,0,.31-.59L66.2,9.07a.45.45,0,0,0-.58-.31.48.48,0,0,0-.32.59Z"/><path d="M50.43,25.33a.43.43,0,0,0,.33.14.44.44,0,0,0,.34-.14.47.47,0,0,0,0-.66L40.65,14.22a.47.47,0,0,0-.66,0,.46.46,0,0,0,0,.67Z"/><path d="M19.38,25l16,7.75a.54.54,0,0,0,.21,0,.47.47,0,0,0,.42-.27.46.46,0,0,0-.22-.63l-16-7.75a.47.47,0,0,0-.63.22A.48.48,0,0,0,19.38,25Z"/><path d="M79.29,95.73a.47.47,0,0,0-.47.47v20.11a.47.47,0,1,0,.94,0V96.2A.47.47,0,0,0,79.29,95.73Z"/><path d="M99.2,94a.47.47,0,1,0-.79.5l11.9,18.89a.49.49,0,0,0,.4.22.43.43,0,0,0,.25-.07.47.47,0,0,0,.15-.65Z"/><path d="M116.22,88.1a.47.47,0,0,0-.53.78l22.39,15.41a.5.5,0,0,0,.27.08.47.47,0,0,0,.27-.86Z"/><path d="M43,88.22a.48.48,0,0,0-.66-.12L20,103.51a.47.47,0,0,0-.12.65.46.46,0,0,0,.39.21.56.56,0,0,0,.27-.08L42.89,88.88A.49.49,0,0,0,43,88.22Z"/><path d="M60,93.82a.47.47,0,0,0-.65.15L47.46,112.86a.48.48,0,0,0,.15.65.48.48,0,0,0,.65-.15L60.17,94.47A.47.47,0,0,0,60,93.82Z"/><path d="M35.79,84.85a.46.46,0,0,0,.22-.63.48.48,0,0,0-.63-.22l-16,7.76a.48.48,0,0,0-.22.63.48.48,0,0,0,.43.26.35.35,0,0,0,.2-.05Z"/><path d="M51.1,91.45a.47.47,0,0,0-.67,0L40,101.89a.46.46,0,0,0,0,.67.46.46,0,0,0,.66,0L51.1,92.12A.48.48,0,0,0,51.1,91.45Z"/><path d="M69.52,95.24a.48.48,0,0,0-.59.32L65.3,107.44a.47.47,0,0,0,.32.58.3.3,0,0,0,.13,0,.46.46,0,0,0,.45-.33l3.63-11.88A.47.47,0,0,0,69.52,95.24Z"/><path d="M89.64,95.56a.46.46,0,0,0-.58-.32.48.48,0,0,0-.32.59l3.63,11.88a.47.47,0,0,0,.45.33.34.34,0,0,0,.14,0,.45.45,0,0,0,.31-.58Z"/><path d="M108.14,91.45a.45.45,0,0,0-.66,0,.46.46,0,0,0,0,.67l10.44,10.44a.47.47,0,0,0,.33.14.48.48,0,0,0,.34-.14.48.48,0,0,0,0-.67Z"/><path d="M139.2,91.76l-16-7.76a.48.48,0,0,0-.63.22.48.48,0,0,0,.22.63l16,7.75a.41.41,0,0,0,.21.05.48.48,0,0,0,.42-.26A.46.46,0,0,0,139.2,91.76Z"/></g></g></svg>