<svg xmlns="http://www.w3.org/2000/svg" viewBox="0 0 84.26 110.39"><defs><style>.cls-1{fill:#272525;}</style></defs><title>Asset 1</title><g id="Layer_2" data-name="Layer 2"><g id="Badge"><path class="cls-1" d="M83.87,45.58a4.09,4.09,0,0,0-1.2-1.42l-.1-.08L82.48,44l-.1-.08-.09-.07-.09-.07-.1-.08L82,43.64l-.1-.08-.09-.07-.1-.08-.09-.07-.1-.08-.09-.07-.1-.07L81.25,43l-.1-.07-.09-.08-.1-.07-.09-.07-.1-.08-.1-.08-.08-.07-.1-.07-.1-.08-.09-.07-.1-.08-.09-.07L80,42.08l-.1-.08-.1-.07-.09-.08-.1-.07-.09-.07-.09-.08-.1-.07-.09-.08-.1-.07-.09-.08-.1-.07-.09-.08-.1-.07L78.69,41l-.1-.08-.09-.07-.1-.08-.09-.07-.09-.07-.1-.08-.1-.08-.09-.07-.09-.07-.1-.08-.09-.07-.1-.08-.1-.07L77.36,40l-.1-.08-.09-.07-.09-.08L77,39.7l-.09-.07-.1-.08-.09-.07-.1-.08-.09-.07-.1-.08-.09-.07-.1-.07L76.13,39,76,39l-.09-.08-.1-.07-.09-.08-.1-.07-.09-.08-.1-.07-.09-.07-.09-.08-.1-.07-.1-.08L75,38.14l-.1-.08L74.8,38l-.09-.07a42.23,42.23,0,0,1,3.55-14.13A3.7,3.7,0,0,0,78,20.21a3,3,0,0,0-.39-.49h0l-5.51-9.59-5.67-8-3.6.58L58,0,54.06,8.17l-3-.54L46.22,4,40.29,14.39l-5.54-2L31.32,14,19.21,10.42l-5.82,8.35-2.76.58L5.87,27.07H3.11L.17,37.21l0,.15a3.83,3.83,0,0,0,.1,2.29c2.12,6.09,2.58,12.88,3,19.45.14,2,.28,4.13.47,6.17a4.13,4.13,0,0,0,1.48,2.8l.1.08.09.07.1.08.09.07.1.08.09.07.1.07.09.08.1.07.09.08.1.07.09.07.09.08.1.08.1.07.09.07.09.08.1.07.1.08.09.07.09.07.1.08.09.07.1.08.09.07.1.07.09.08.1.07.09.08.1.07.09.08a.31.31,0,0,1,.09.07l.1.08a.31.31,0,0,1,.09.07l.1.07.09.08.1.07.09.08.1.07L9,71l.1.08.09.07.1.08.09.07.1.08.09.07.1.08.09.07.1.07.09.08.1.07.09.08.1.07.09.08.1.07.09.07.1.08.09.07.1.08.09.07.1.08.09.07.09.07.1.08.09.07.1.08.1.07a.73.73,0,0,0,.09.08l.09.07.1.08.09.07.1.07.09.08.1.07.09.08.1.07.09.07.1.08.09.07.1.08.09.07.1.08.09.07.1.08.09.07.1.07.09.08.09.07.1.08.09.07.1.08.09.07L14,75l.09.08.1.07.09.08.1.07.09.08.1.07.09.07a4.44,4.44,0,0,0,1.23.76L14.63,87.07c0,.34-.13.81-.23,1.31C14,90.69,13.16,94.77,16,97.1l.09.08.1.07.09.08.09.07.1.08.1.07.09.07.1.08.09.08.09.07.1.07.09.08.1.07.1.08.09.07.1.07a.73.73,0,0,0,.09.08l.09.07.1.08.1.07a.31.31,0,0,0,.09.07.39.39,0,0,0,.1.08.73.73,0,0,0,.09.08l.09.07.1.07.09.08.1.07.09.08.1.07.09.07.1.08.09.07.1.08.09.07.1.08.09.07.1.07a.73.73,0,0,0,.09.08l.1.07a.73.73,0,0,0,.09.08l.1.07a.73.73,0,0,0,.09.08l.09.07.1.08.1.07.09.07.09.08.1.07.09.07.1.08.09.08.1.07L21,101l.1.08.09.07.1.08.09.07.09.07.1.08.09.07.1.08.1.07.09.08.1.07.09.08.09.07.1.07.1.08.09.07.1.08.09.07.09.08.1.07.09.07.1.08.09.07.1.08.09.07.1.08.09.07.1.08.09.07.1.07.09.08a.31.31,0,0,1,.09.07l.1.08.1.07a.31.31,0,0,0,.09.07l.1.08.09.07.09.08.1.07.1.08.09.07.09.07.1.08.09.07.1.08.09.07.1.08a6,6,0,0,0,1.39.9,8.54,8.54,0,0,0,3.68.74,29.08,29.08,0,0,0,8.2-1.69l.57-.18a.84.84,0,0,0,.14-.06l.08.06.09.07.09.08.1.07.1.08.09.07.1.08.09.07.09.07.1.08.09.07.1.08.1.07.09.08.09.07.1.07.09.08.1.07.09.08.1.07.09.08.1.07.09.07.1.08.09.07.1.08.09.07.09.07.1.08.1.08.09.07.09.07.1.08.09.07.1.07.09.08.1.07.1.08.09.07.09.08.1.07.09.08.1.07.09.07.09.08.1.07.1.08.09.07.1.08.1.07.08.07.1.08.1.07.09.08.1.07.09.08.09.07.1.07.09.08.1.07.09.08.1.07.1.08.09.07.09.07.1.08.09.07.1.08a5.31,5.31,0,0,0,3.39,1.1A8.34,8.34,0,0,0,51,110.2c5.15-1.09,7.51-7.35,8.78-10.71l.11-.3A24.27,24.27,0,0,0,61.44,88.5a9.1,9.1,0,0,0,5.26,1.64h0c5.47,0,10.19-4.54,12-6.5a3.94,3.94,0,0,0,.73-4.29,4.32,4.32,0,0,0-1.22-1.59l-.09-.07-.1-.07-.09-.08-.09-.07-.1-.08-.09-.07-.1-.07-.09-.08-.1-.07L77.25,77l-.1-.07-.09-.08A.31.31,0,0,1,77,76.8l-.1-.08-.1-.07-.09-.07-.1-.08-.09-.07-.1-.08-.09-.07-.1-.07-.09-.08-.1-.07L75.92,76l-.1-.07-.09-.08-.09-.07-.1-.07-.1-.08a.31.31,0,0,0-.09-.07l-.1-.08,0,0a1.63,1.63,0,0,0,.11-.23A5.17,5.17,0,0,0,74,68.78l-.09-.08-.1-.07-.09-.07-.1-.08-.09-.07-.1-.08-.09-.07-.1-.08-.09-.07L73,68,72.93,68l-.09-.07-.1-.08-.1-.07a.31.31,0,0,0-.09-.07.39.39,0,0,0-.1-.08l-.09-.07-.09-.08-.1-.07-.09-.08-.1-.07-.1-.08-.09-.07L71.7,67l-.1-.07-.09-.07-.1-.08-.09-.07-.1-.07-.09-.08-.1-.08-.09-.07-.1-.08-.09-.07-.1-.07-.09-.08L70.47,66l-.1-.08-.1-.07-.09-.07-.1-.08L70,65.66l-.09-.08-.1-.07-.09-.07-.1-.08-.09-.07-.1-.08-.09-.07-.1-.08L69.14,65l-.1-.08L69,64.84l-.1-.07-.09-.08-.1-.07-.09-.08-.1-.07-.09-.08-.1-.07-.09-.07-.09-.08L68,64.1,67.9,64,67.81,64l-.09-.08-.1-.07-.09-.07-.1-.08-.09-.07-.1-.08,0,0a4,4,0,0,0-.81-2.27,9.11,9.11,0,0,0-1.67-1.67l-.1-.07-.09-.07-.09-.08-.1-.08-.09-.07-.1-.07L64.05,59l-.1-.07-.09-.08-.1-.07-.09-.07-.1-.08-.09-.07-.1-.08-.09-.07-.1-.08,0,0a8.92,8.92,0,0,0,3.18-1.06,13.53,13.53,0,0,0,3.76-3.13,7.7,7.7,0,0,0,2.82,1,10.94,10.94,0,0,0,1.38.1h0c4.91,0,8-4.08,9.15-5.62A3.75,3.75,0,0,0,83.87,45.58ZM66.1,3.49,70,9,67.34,6.52,65.11,6.1l1.45-.64L64,5.29l1.73-.6L61.94,4Zm-19.18,3L50.6,9.65l2.61.26L50.3,18.36l-.07-4.44-2.21-1,1.88-.28-3.31-2.58,2.95.21Zm-7.16,9.27L38.65,16.9l-3.44-3.23ZM33,28a1.81,1.81,0,0,1,3.59,0v.26a1.81,1.81,0,0,1-3.59,0Zm-4.1-13-6.18,6.61,2.53-4.23L21.65,16l4.4.58-4.72-2,4.56.72-5.3-2.85ZM15.33,46.54A97.51,97.51,0,0,1,9.8,65.45,1.86,1.86,0,0,1,6.27,65c-.8-8.66-.71-17.87-3.62-26.24C2,36.88,5.44,36.06,6.11,38c2.06,5.93,2.67,12.26,3.12,18.55a92.51,92.51,0,0,0,3.28-14.65,1.88,1.88,0,0,1,3.35-.78c2.21,3.19,4.25,6.49,6.28,9.79,1-10.41,2.46-20.82,6.61-30.68.79-1.88,4.26-1.06,3.46.83-4.76,11.32-5.93,23.33-7,35.26a1.87,1.87,0,0,1-3.34.79C19.7,53.58,17.58,50,15.33,46.54Zm13.6,47.82c-2.69.84-7.76,2.61-10.58,1.26-3.09-1.47-1.45-5.92-1.18-8.25q1.51-12.75,3-25.49c.24-2,3.75-1.33,3.52.65L21.52,81c-.38,3.16-.91,6.34-1.13,9.5,0,.49-.37,2.06.1,2.4s2.14-.25,2.56-.33a37.87,37.87,0,0,0,4.72-1.18C30,90.73,31.1,93.68,28.93,94.36ZM63.39,66.67a9.08,9.08,0,0,1-9,5.12c-.42,2.44,0,5.41,3.75,5,2.83-.28,4.78-2.68,6.4-4.47,1.44-1.58,4.12.5,2.69,2.07C64,78,57.6,82.68,52.59,78.32c-2.05-1.79-2.41-4.46-1.88-7.11a22,22,0,0,1-4.27,1.46,16.39,16.39,0,0,1,2.28,5.17,21,21,0,0,1-.83,12.94c-1.09,2.87-3.11,8.58-7,9.4-5,1.06-4.34-4.22-4.2-6.8.12-2.33.27-4.67.43-7-2.27,1.76-5,2.56-6.86-.29-1.5-2.22-.63-5.67-.46-8.08.24-3.36.61-6.71,1.08-10.06.28-2,3.8-1.33,3.51.65-.54,3.87-.94,7.75-1.15,11.65-.05.89-.89,4.49,1.29,4.17,1.2-.17,2.31-2,3-3.32.53-6.15,1.24-12.3,2.25-18.39.6-3.65,1.91-7.6,6-9.43a7.54,7.54,0,0,1,9,2C56,56.91,53,58.64,51.76,57c-2.5-3.32-6.5.16-7.52,2.56-1.14,2.7-1.27,5.79-1.65,8.63-.09.65-.16,1.31-.25,2a18,18,0,0,0,8-2.34,2.17,2.17,0,0,1,.84-.25,1.72,1.72,0,0,1,.91-.26,16.09,16.09,0,0,1,2.1-3.18,5.91,5.91,0,0,1,6.62-1.82C63.24,63,64.34,64.48,63.39,66.67ZM30.81,62.88a1.68,1.68,0,0,1,1.69-1.65h.15a1.76,1.76,0,0,1,1.9,1.46,1.68,1.68,0,0,1-1.69,1.65h-.15A1.76,1.76,0,0,1,30.81,62.88Zm41-22.35c-1.81,2.41-4.35,5.09-8.09,4.53a4.72,4.72,0,0,1-3.57-2.38,12.59,12.59,0,0,1-4.65,4.82,6.21,6.21,0,0,1-5.8.26c-1.6,1.43-4.22,3.42-6.5,2.22a4.55,4.55,0,0,1-2.06-2.53c-2.5,3.75-6.72,8.66-10.54,5.39-2.16-1.84-1.5-5-1.25-7.3.39-3.53,1.11-7,1.84-10.53.41-2,3.87-1.13,3.46.83a81.25,81.25,0,0,0-1.92,12.25c-.05,1,.12,2.58,1.74,1.91.75-.3,1.53-1.58,2-2.17a35.42,35.42,0,0,0,3.29-4.76,1.52,1.52,0,0,1,.61-.6c-.11-6.62,1.74-13.68,3.25-20.08.46-2,3.93-1.13,3.46.83A136.57,136.57,0,0,0,44.44,37.9a28.6,28.6,0,0,0-.39,6.19A8.72,8.72,0,0,0,44.82,47a6.31,6.31,0,0,1,.77-.28,9.72,9.72,0,0,0,1.78-1.38,5.08,5.08,0,0,1-.29-.77c-1.11-3.9,1.69-9.14,4.18-12.27,1.9-2.38,4.72-4,7.82-3.54a47.09,47.09,0,0,1,3.8-14.38c.82-1.86,4.29-1.05,3.46.82a44.91,44.91,0,0,0-3.8,15.38,48.86,48.86,0,0,0,.1,7.65c.13,1.39,0,4,2.66,3.66,1.56-.21,2.67-2,3.42-3C70,37.28,73.09,38.85,71.82,40.53Z"/><path class="cls-1" d="M56.09,67.32a12.77,12.77,0,0,0-.76,1.41,3.68,3.68,0,0,0,1.61-.21c.82-.28,3.34-2,3.12-3C59.47,63.05,56.4,66.81,56.09,67.32Z"/><path class="cls-1" d="M58.86,31.91c-4.65-1.4-8.21,7.81-8.37,10.55-.13,2.31,1.22,3.61,3.92,1.8a9.09,9.09,0,0,0,2.22-2.62,16.73,16.73,0,0,0,2.26-5.39C58.81,34.81,58.8,33.36,58.86,31.91Z"/><path class="cls-1" d="M42,73.27c-.28,2.37-.53,4.73-.75,7.1a1.29,1.29,0,0,1,0,1.26l-.11.2c-.15,1.62-.28,3.24-.4,4.87s-.24,3.33-.33,5c-.07,1.08-.72,3.57-.23,4.5-.19.61,0,.68.49.2a1.16,1.16,0,0,0,.77-.67,11.19,11.19,0,0,0,1.22-1.93,26.79,26.79,0,0,0,1.94-4.09A19,19,0,0,0,45.71,81C45.54,79.54,44.4,73.5,42,73.27Z"/></g></g></svg>